<svg id="svg" version="1.1" xmlns="http://www.w3.org/2000/svg" xmlns:xlink="http://www.w3.org/1999/xlink" width="400" height="400" viewBox="0, 0, 400,400"><g id="svgg"><path id="path0" d="M274.090 142.603 C 272.930 142.887,271.670 143.353,271.290 143.639 C 264.932 148.437,264.751 154.694,270.787 161.057 C 274.830 165.319,279.723 171.535,283.419 177.102 C 285.281 179.906,286.951 182.383,287.130 182.606 C 287.310 182.830,288.926 185.980,290.723 189.606 C 292.520 193.233,294.127 196.380,294.295 196.600 C 294.463 196.820,294.663 197.360,294.740 197.800 C 294.817 198.240,295.076 198.960,295.315 199.400 C 295.555 199.840,295.787 200.470,295.831 200.800 C 295.875 201.130,296.357 202.660,296.902 204.200 C 298.310 208.180,299.478 212.245,299.948 214.800 C 300.777 219.314,301.259 221.856,301.654 223.800 C 302.197 226.476,301.856 244.286,301.202 247.400 C 300.925 248.720,300.650 250.430,300.593 251.200 C 300.535 251.970,300.288 253.107,300.044 253.726 C 299.800 254.345,299.600 255.370,299.600 256.002 C 299.600 256.635,299.451 257.245,299.268 257.358 C 299.086 257.470,298.697 258.606,298.404 259.881 C 298.111 261.157,297.720 262.371,297.536 262.580 C 297.351 262.789,297.200 263.249,297.200 263.602 C 297.200 264.598,294.609 270.851,291.772 276.701 C 290.359 279.616,289.217 282.116,289.235 282.256 C 289.253 282.396,289.106 282.621,288.908 282.755 C 288.710 282.890,287.418 284.800,286.038 287.000 C 281.410 294.375,277.213 299.981,271.074 306.986 C 266.914 311.733,266.637 312.306,266.618 316.200 C 266.582 323.855,273.933 328.482,280.915 325.198 C 282.519 324.444,287.528 319.608,287.542 318.800 C 287.544 318.690,288.323 317.789,289.273 316.797 C 298.066 307.616,308.023 290.963,315.220 273.400 C 316.018 271.452,318.233 264.434,318.818 262.000 C 322.958 244.780,323.377 227.106,320.005 212.000 C 319.538 209.910,319.000 207.480,318.808 206.600 C 318.617 205.720,318.175 204.100,317.827 203.000 C 317.479 201.900,317.002 200.370,316.768 199.600 C 311.610 182.628,299.644 162.343,286.443 148.196 C 282.823 144.317,277.742 141.241,276.280 142.044 C 276.236 142.069,275.251 142.320,274.090 142.603 M240.800 172.176 C 240.800 172.493,240.589 172.883,240.332 173.042 C 240.017 173.236,239.948 173.113,240.119 172.666 C 240.260 172.300,240.201 172.000,239.987 172.000 C 239.774 172.000,239.600 172.253,239.600 172.563 C 239.600 172.938,239.300 173.059,238.700 172.928 C 238.113 172.799,237.971 172.854,238.292 173.084 C 238.662 173.350,238.587 173.605,237.987 174.118 C 236.971 174.988,236.651 174.983,236.958 174.100 C 237.161 173.516,237.102 173.529,236.601 174.176 C 236.270 174.604,235.997 175.234,235.994 175.576 C 235.988 176.126,235.938 176.129,235.563 175.600 C 235.230 175.130,235.175 175.236,235.311 176.088 C 235.406 176.686,235.330 177.081,235.142 176.964 C 234.831 176.772,234.634 177.347,234.753 178.100 C 234.779 178.265,234.601 178.400,234.357 178.400 C 234.114 178.400,234.018 178.670,234.145 179.000 C 234.285 179.365,234.145 179.600,233.787 179.600 C 233.464 179.600,233.200 179.791,233.200 180.024 C 233.200 180.257,233.425 180.312,233.700 180.147 C 234.091 179.912,234.097 179.974,233.724 180.435 C 233.175 181.114,233.144 183.600,233.684 183.600 C 233.884 183.600,233.917 183.811,233.758 184.068 C 233.562 184.385,233.689 184.451,234.155 184.273 C 234.641 184.086,234.749 184.154,234.527 184.505 C 234.022 185.300,234.139 185.772,234.948 186.200 C 235.365 186.420,235.915 187.230,236.172 188.000 C 236.429 188.770,236.869 189.351,237.149 189.290 C 237.430 189.230,237.563 189.336,237.445 189.527 C 237.026 190.206,242.215 194.821,242.794 194.284 C 243.204 193.905,243.258 193.906,243.042 194.288 C 242.885 194.567,243.203 195.156,243.784 195.661 C 244.788 196.533,245.212 197.502,244.360 196.975 C 244.051 196.784,244.055 196.956,244.374 197.552 C 244.624 198.018,244.922 198.400,245.038 198.400 C 245.153 198.400,245.136 198.220,245.000 198.000 C 244.864 197.780,244.943 197.600,245.176 197.600 C 245.592 197.600,245.755 198.126,245.634 199.082 C 245.601 199.347,246.028 199.862,246.583 200.226 C 247.139 200.590,247.475 201.078,247.331 201.312 C 247.166 201.579,247.322 201.639,247.755 201.473 C 248.163 201.316,248.342 201.370,248.197 201.605 C 248.063 201.822,248.143 202.000,248.376 202.000 C 248.609 202.000,248.800 202.281,248.800 202.624 C 248.800 203.016,248.985 203.136,249.300 202.947 C 249.591 202.772,249.549 202.961,249.200 203.398 C 248.652 204.085,248.664 204.126,249.345 203.870 C 249.906 203.660,250.032 203.740,249.857 204.195 C 249.542 205.017,249.984 206.057,250.510 205.732 C 250.784 205.563,250.837 205.727,250.659 206.191 C 250.414 206.830,250.461 206.849,251.068 206.357 C 251.445 206.050,251.630 206.006,251.479 206.258 C 251.328 206.510,251.464 207.218,251.782 207.830 C 252.099 208.442,252.250 209.118,252.118 209.333 C 251.983 209.552,252.083 209.596,252.345 209.434 C 252.602 209.275,252.692 208.949,252.545 208.711 C 252.379 208.443,252.464 208.392,252.765 208.579 C 253.034 208.745,253.160 209.127,253.045 209.428 C 252.929 209.728,253.007 210.081,253.217 210.211 C 253.428 210.341,253.600 210.782,253.600 211.190 C 253.600 211.599,253.799 212.000,254.042 212.081 C 254.725 212.308,255.654 215.319,255.140 215.637 C 254.843 215.821,254.848 215.982,255.157 216.174 C 255.401 216.324,255.603 216.302,255.606 216.124 C 255.615 215.658,256.388 216.920,256.388 217.400 C 256.388 217.620,256.213 217.530,256.000 217.200 C 255.684 216.712,255.611 216.762,255.606 217.471 C 255.603 217.951,255.844 218.586,256.141 218.884 C 256.439 219.182,256.664 219.817,256.641 220.296 C 256.619 220.775,256.764 221.158,256.964 221.148 C 257.619 221.113,258.093 222.406,257.630 222.964 C 257.053 223.659,257.527 226.003,258.193 225.747 C 258.492 225.633,258.775 225.956,258.886 226.540 C 259.022 227.251,258.925 227.469,258.538 227.321 C 257.668 226.987,257.904 228.548,258.809 229.113 C 259.482 229.533,259.543 229.760,259.169 230.457 C 258.816 231.118,258.828 231.230,259.228 230.983 C 259.608 230.748,259.650 230.862,259.397 231.434 C 259.210 231.855,259.092 232.740,259.135 233.400 C 259.208 234.521,259.203 236.017,259.119 238.400 C 259.100 238.950,259.176 239.981,259.289 240.690 C 259.401 241.400,259.346 241.890,259.166 241.779 C 258.683 241.480,257.913 243.137,258.270 243.708 C 258.807 244.567,258.755 245.242,258.135 245.480 C 257.709 245.644,257.669 245.795,257.996 245.998 C 258.336 246.207,258.309 246.434,257.896 246.847 C 257.345 247.398,257.240 247.873,257.178 250.107 C 257.161 250.716,257.016 251.134,256.856 251.035 C 256.697 250.936,256.537 251.246,256.501 251.723 C 256.448 252.425,256.512 252.477,256.839 251.995 C 257.167 251.513,257.216 251.551,257.098 252.200 C 257.018 252.640,256.755 252.961,256.514 252.913 C 256.273 252.865,255.971 253.099,255.843 253.433 C 255.714 253.768,255.780 253.936,255.990 253.806 C 256.203 253.674,256.333 254.088,256.285 254.751 C 256.221 255.643,256.079 255.829,255.700 255.516 C 255.425 255.288,255.190 255.169,255.177 255.251 C 255.164 255.333,255.079 256.119,254.987 256.998 C 254.896 257.877,254.546 258.796,254.210 259.042 C 253.875 259.287,253.600 259.884,253.600 260.368 C 253.600 260.931,253.434 261.144,253.138 260.962 C 252.833 260.773,252.786 260.854,252.999 261.199 C 253.203 261.528,253.049 261.921,252.585 262.261 C 252.033 262.664,251.993 262.807,252.424 262.828 C 252.777 262.845,252.691 262.989,252.200 263.200 C 251.760 263.389,251.625 263.556,251.900 263.572 C 252.175 263.587,252.400 263.799,252.400 264.043 C 252.400 264.289,252.109 264.374,251.743 264.234 C 251.219 264.032,251.180 264.094,251.548 264.538 C 252.042 265.132,251.199 266.266,250.663 265.730 C 250.518 265.585,250.400 265.947,250.400 266.533 C 250.400 267.280,250.190 267.602,249.700 267.606 C 249.102 267.611,249.087 267.669,249.600 268.000 C 250.132 268.344,250.132 268.388,249.596 268.394 C 249.264 268.397,248.748 268.805,248.449 269.300 C 248.022 270.007,248.019 270.093,248.433 269.700 C 248.723 269.425,249.149 269.203,249.380 269.207 C 249.611 269.210,249.210 269.591,248.489 270.053 C 247.447 270.720,247.273 271.006,247.638 271.446 C 248.077 271.975,247.913 272.097,246.936 271.964 C 246.529 271.909,245.929 273.162,246.174 273.558 C 246.293 273.751,245.988 274.032,245.496 274.181 C 244.900 274.362,244.779 274.527,245.133 274.671 C 245.489 274.817,245.260 275.136,244.441 275.633 C 243.639 276.121,243.297 276.589,243.451 276.989 C 243.608 277.397,243.439 277.610,242.943 277.632 C 242.522 277.649,242.417 277.751,242.700 277.865 C 242.975 277.976,243.200 278.242,243.200 278.457 C 243.200 278.672,243.012 278.731,242.782 278.589 C 241.983 278.095,240.045 280.695,239.972 282.361 C 239.950 282.867,239.883 282.846,239.653 282.261 C 239.374 281.553,239.338 281.552,238.781 282.238 C 238.295 282.837,238.293 282.898,238.768 282.611 C 239.199 282.351,239.272 282.437,239.068 282.967 C 238.921 283.351,238.797 283.876,238.794 284.133 C 238.790 284.399,238.624 284.342,238.406 284.000 C 238.086 283.497,237.845 283.592,236.912 284.584 C 236.070 285.481,236.031 285.578,236.755 284.984 L 237.709 284.200 237.044 285.500 C 236.679 286.215,236.283 286.800,236.166 286.800 C 236.049 286.800,236.064 286.620,236.200 286.400 C 236.563 285.812,236.030 285.913,235.390 286.552 C 235.087 286.856,234.950 287.216,235.086 287.352 C 235.222 287.489,235.123 287.600,234.867 287.600 C 234.610 287.600,234.421 287.735,234.447 287.900 C 234.630 289.056,234.317 290.400,233.865 290.400 C 233.035 290.400,233.071 293.203,233.910 293.896 C 234.562 294.434,234.562 294.453,233.900 294.245 C 233.515 294.124,233.200 294.199,233.200 294.413 C 233.200 294.626,233.391 294.800,233.624 294.800 C 233.857 294.800,233.936 294.980,233.800 295.200 C 233.664 295.420,233.743 295.600,233.976 295.600 C 234.209 295.600,234.400 295.851,234.400 296.157 C 234.400 296.464,234.681 296.822,235.025 296.954 C 235.369 297.086,235.539 297.376,235.402 297.597 C 235.265 297.819,235.343 298.000,235.576 298.000 C 235.809 298.000,236.000 298.258,236.000 298.573 C 236.000 298.888,236.333 299.252,236.739 299.381 C 237.146 299.510,237.672 300.039,237.908 300.558 C 238.144 301.076,238.911 301.700,239.613 301.945 C 240.726 302.333,240.826 302.314,240.396 301.795 C 240.082 301.417,240.058 301.200,240.327 301.200 C 240.561 301.200,240.866 301.383,241.004 301.607 C 241.142 301.830,241.410 301.917,241.600 301.800 C 241.790 301.683,242.075 301.798,242.234 302.055 C 242.415 302.348,242.350 302.416,242.062 302.238 C 241.808 302.081,241.600 302.143,241.600 302.376 C 241.600 302.609,242.320 302.800,243.200 302.800 C 244.080 302.800,244.800 302.608,244.800 302.373 C 244.800 302.131,245.189 302.043,245.700 302.169 C 246.195 302.292,246.374 302.289,246.098 302.162 C 245.391 301.838,245.888 301.200,246.847 301.200 C 247.373 301.200,247.549 301.372,247.362 301.700 C 247.205 301.975,247.672 301.660,248.400 301.000 C 249.128 300.340,249.593 300.070,249.432 300.400 C 249.272 300.730,249.424 300.651,249.770 300.224 C 250.117 299.796,250.400 299.239,250.400 298.986 C 250.400 298.732,250.760 298.198,251.200 297.800 C 252.186 296.908,252.254 297.435,251.300 298.569 C 250.600 299.400,250.600 299.400,251.503 298.636 C 251.999 298.215,252.383 297.675,252.355 297.436 C 252.231 296.359,252.441 295.930,252.987 296.140 C 253.684 296.407,254.226 295.682,254.065 294.700 C 253.963 294.081,254.395 293.815,255.286 293.948 C 255.443 293.971,255.481 293.756,255.371 293.470 C 255.262 293.184,255.538 292.618,255.986 292.213 C 256.976 291.317,257.076 291.666,256.107 292.636 C 255.584 293.159,255.559 293.281,256.007 293.134 C 256.333 293.027,256.799 292.337,257.043 291.600 C 257.286 290.863,257.863 290.120,258.324 289.950 C 258.896 289.738,259.111 289.377,259.002 288.809 C 258.914 288.352,259.012 288.084,259.221 288.213 C 259.429 288.342,259.799 288.324,260.043 288.174 C 260.357 287.979,260.341 287.811,259.987 287.592 C 259.639 287.377,259.838 287.095,260.644 286.658 C 261.280 286.314,261.575 286.025,261.300 286.016 C 261.025 286.007,260.800 285.826,260.800 285.613 C 260.800 285.399,261.043 285.318,261.341 285.433 C 261.640 285.547,262.181 285.184,262.550 284.620 C 262.918 284.059,263.062 283.600,262.870 283.600 C 262.679 283.600,262.315 284.005,262.063 284.500 C 261.656 285.297,261.615 285.308,261.706 284.603 C 261.763 284.165,262.313 283.565,262.927 283.271 C 263.850 282.828,263.959 282.633,263.554 282.145 C 263.285 281.820,263.230 281.586,263.432 281.625 C 264.318 281.793,264.800 281.553,264.800 280.944 C 264.800 280.583,265.115 280.043,265.500 279.743 C 266.159 279.230,266.157 279.213,265.460 279.457 C 264.797 279.689,264.775 279.629,265.247 278.874 C 265.632 278.256,265.865 278.161,266.121 278.516 C 266.344 278.826,266.398 278.676,266.272 278.100 C 266.164 277.606,266.266 277.083,266.499 276.939 C 266.749 276.784,266.806 276.867,266.638 277.138 C 266.481 277.392,266.543 277.600,266.776 277.600 C 267.009 277.600,267.200 277.317,267.200 276.971 C 267.200 276.626,267.492 276.051,267.849 275.694 C 268.448 275.095,268.441 275.025,267.759 274.786 C 267.133 274.566,267.201 274.461,268.210 274.095 C 268.865 273.857,269.175 273.649,268.900 273.632 C 268.625 273.614,268.400 273.390,268.400 273.133 C 268.400 272.877,268.511 272.778,268.648 272.914 C 268.947 273.214,269.706 272.496,270.337 271.318 C 270.904 270.258,270.927 269.874,270.405 270.197 C 270.178 270.337,270.111 270.177,270.246 269.823 C 270.377 269.483,270.626 269.293,270.800 269.400 C 271.181 269.635,271.600 268.646,271.600 267.511 C 271.600 267.059,271.915 266.430,272.300 266.114 C 272.758 265.739,272.793 265.630,272.400 265.800 C 271.970 265.986,271.990 265.903,272.471 265.507 C 272.911 265.145,273.023 264.762,272.798 264.396 C 272.608 264.089,272.553 263.675,272.676 263.476 C 272.799 263.277,273.055 263.359,273.244 263.657 C 273.514 264.084,273.589 264.056,273.594 263.524 C 273.597 263.152,273.420 262.736,273.199 262.599 C 272.936 262.437,272.958 262.052,273.262 261.485 C 273.716 260.636,273.733 260.634,274.069 261.409 C 274.334 262.020,274.364 261.950,274.199 261.100 C 274.066 260.418,274.158 260.000,274.441 260.000 C 274.762 260.000,274.747 259.819,274.392 259.391 C 273.970 258.882,273.994 258.823,274.540 259.032 C 274.925 259.180,275.252 259.061,275.336 258.742 C 275.414 258.444,275.684 257.579,275.935 256.821 C 276.234 255.913,276.254 255.357,275.991 255.194 C 275.543 254.918,275.908 252.504,276.447 252.171 C 276.636 252.054,276.686 252.283,276.558 252.679 C 276.371 253.257,276.406 253.285,276.734 252.823 C 276.958 252.506,277.079 251.740,277.000 251.122 C 276.922 250.505,277.115 249.742,277.429 249.428 C 278.283 248.574,278.176 247.764,277.300 248.451 C 276.681 248.937,276.657 248.927,277.097 248.363 C 277.370 248.013,277.460 247.579,277.297 247.399 C 277.133 247.219,277.195 247.183,277.433 247.318 C 277.672 247.454,277.867 247.311,277.867 247.000 C 277.867 246.689,277.719 246.527,277.538 246.638 C 277.134 246.888,277.571 245.598,278.136 244.870 C 278.431 244.491,278.384 244.235,277.974 243.976 C 277.487 243.667,277.494 243.611,278.021 243.606 C 278.455 243.602,278.653 243.179,278.681 242.201 C 278.703 241.431,278.588 240.884,278.425 240.984 C 278.263 241.085,278.145 240.561,278.164 239.821 C 278.182 239.081,278.345 238.566,278.525 238.677 C 279.103 239.034,278.624 229.752,278.027 229.032 C 277.729 228.674,277.595 228.271,277.729 228.138 C 277.863 228.004,277.780 227.537,277.546 227.099 C 277.239 226.525,277.243 226.379,277.560 226.575 C 277.802 226.725,278.000 226.657,278.000 226.424 C 278.000 226.191,277.798 226.000,277.551 226.000 C 277.259 226.000,277.233 225.825,277.476 225.500 C 277.922 224.902,277.911 224.394,277.432 223.638 C 277.188 223.252,277.221 223.166,277.538 223.362 C 277.792 223.519,278.000 223.457,278.000 223.224 C 278.000 222.991,277.825 222.800,277.611 222.800 C 277.013 222.800,276.450 220.287,276.915 219.691 C 277.212 219.311,277.146 219.246,276.657 219.434 C 275.890 219.728,275.787 219.173,276.480 218.480 C 276.853 218.107,276.843 218.000,276.433 218.000 C 276.097 218.000,275.985 217.700,276.124 217.168 C 276.283 216.561,276.188 216.396,275.771 216.556 C 275.252 216.755,274.957 215.826,275.167 214.658 C 275.200 214.470,274.997 214.035,274.714 213.693 C 274.358 213.261,274.335 213.024,274.642 212.921 C 275.290 212.703,274.811 210.800,274.108 210.800 C 273.670 210.800,273.557 210.477,273.685 209.600 C 273.833 208.597,273.725 208.399,273.031 208.394 C 272.448 208.390,272.353 208.290,272.714 208.062 C 273.265 207.712,272.965 206.400,272.334 206.400 C 272.124 206.400,272.065 206.218,272.202 205.996 C 272.620 205.321,271.981 203.922,271.364 204.159 C 271.054 204.278,270.800 204.201,270.800 203.987 C 270.800 203.774,270.974 203.600,271.187 203.600 C 271.401 203.600,271.471 203.330,271.345 203.000 C 271.218 202.670,270.943 202.400,270.734 202.400 C 270.524 202.400,270.488 202.625,270.653 202.900 C 270.857 203.240,270.737 203.224,270.277 202.851 C 269.560 202.270,269.343 201.794,269.972 202.183 C 270.177 202.309,270.472 202.206,270.629 201.954 C 270.785 201.701,270.617 201.329,270.256 201.127 C 269.895 200.925,269.600 200.409,269.600 199.980 C 269.600 199.551,269.390 199.200,269.133 199.200 C 268.877 199.200,268.779 199.088,268.916 198.950 C 269.054 198.813,268.850 198.408,268.464 198.050 C 268.078 197.693,268.024 197.580,268.343 197.800 C 268.798 198.114,268.777 197.916,268.245 196.887 C 267.871 196.165,267.396 195.679,267.188 195.808 C 266.979 195.936,266.903 195.796,267.019 195.496 C 267.134 195.195,266.866 194.622,266.424 194.221 C 265.981 193.821,265.715 193.337,265.833 193.147 C 265.951 192.956,265.857 192.800,265.624 192.800 C 265.391 192.800,265.200 192.530,265.200 192.200 C 265.200 191.870,265.065 191.621,264.900 191.647 C 264.020 191.786,263.729 191.507,263.888 190.676 C 263.991 190.137,263.801 189.533,263.432 189.227 C 262.909 188.793,262.800 188.795,262.800 189.240 C 262.800 189.540,262.524 189.385,262.177 188.888 C 261.834 188.399,261.665 187.819,261.800 187.599 C 261.936 187.380,261.846 187.200,261.600 187.200 C 261.354 187.200,261.259 187.028,261.389 186.817 C 261.520 186.606,261.066 186.144,260.381 185.790 C 259.591 185.382,259.216 184.936,259.355 184.573 C 259.483 184.239,259.335 184.000,259.000 184.000 C 258.656 184.000,258.517 183.762,258.653 183.406 C 258.803 183.016,258.523 182.675,257.841 182.415 C 257.268 182.198,256.800 181.915,256.800 181.786 C 256.800 181.658,257.025 181.688,257.300 181.853 C 257.603 182.035,257.570 181.871,257.216 181.435 C 256.895 181.040,256.220 180.560,255.716 180.368 C 255.212 180.177,254.800 179.813,254.800 179.561 C 254.800 179.243,255.016 179.266,255.500 179.634 C 255.885 179.926,255.582 179.501,254.827 178.689 C 254.072 177.876,253.372 177.295,253.271 177.396 C 253.169 177.497,253.517 177.939,254.043 178.377 C 254.826 179.028,254.875 179.176,254.314 179.187 C 253.650 179.200,252.536 177.728,252.721 177.081 C 252.772 176.906,252.585 176.812,252.306 176.873 C 252.028 176.934,251.313 176.493,250.718 175.892 C 250.123 175.291,249.725 174.800,249.832 174.800 C 249.940 174.800,249.839 174.447,249.608 174.015 C 249.355 173.541,248.946 173.323,248.578 173.464 C 248.191 173.612,248.010 173.496,248.084 173.149 C 248.152 172.828,247.868 172.600,247.400 172.600 C 246.960 172.600,246.472 172.420,246.315 172.200 C 245.972 171.719,244.400 171.577,244.400 172.027 C 244.400 172.201,243.816 172.177,243.103 171.972 C 241.313 171.459,240.800 171.504,240.800 172.176 M250.800 175.200 C 251.035 175.640,251.412 176.000,251.638 176.000 C 251.863 176.000,251.919 176.208,251.762 176.462 C 251.579 176.758,251.653 176.815,251.968 176.620 C 252.330 176.396,252.222 176.062,251.560 175.358 C 250.463 174.190,250.234 174.143,250.800 175.200 M278.287 236.695 C 278.195 237.303,278.117 236.900,278.114 235.800 C 278.111 234.700,278.187 234.203,278.282 234.695 C 278.377 235.186,278.379 236.086,278.287 236.695 " stroke="none" fill="#000000" fill-rule="evenodd"></path><path id="path1" d="M187.506 32.627 C 187.362 32.772,185.569 33.050,183.522 33.246 C 177.606 33.812,170.216 35.120,166.000 36.347 C 162.558 37.349,161.327 37.680,160.295 37.879 C 159.687 37.996,159.092 38.251,158.971 38.446 C 158.851 38.641,158.349 38.800,157.856 38.800 C 157.363 38.800,156.789 38.943,156.580 39.118 C 156.371 39.293,155.480 39.665,154.600 39.945 C 153.720 40.224,152.595 40.621,152.100 40.826 C 151.605 41.032,150.795 41.362,150.300 41.559 C 132.100 48.823,114.166 61.853,101.600 76.943 C 100.170 78.660,98.526 80.636,97.947 81.333 C 92.302 88.124,78.800 112.302,78.800 115.618 C 78.800 115.834,78.623 116.323,78.408 116.705 C 78.192 117.087,77.360 119.380,76.559 121.800 C 75.105 126.195,74.693 127.587,73.955 130.600 C 73.740 131.480,73.380 132.920,73.157 133.800 C 71.331 140.983,69.838 151.468,69.358 160.477 C 69.103 165.274,69.065 165.334,65.600 166.390 C 64.610 166.692,63.629 167.088,63.420 167.270 C 63.211 167.451,62.811 167.600,62.530 167.600 C 61.424 167.600,51.576 172.385,47.000 175.147 C 26.252 187.666,8.861 210.008,2.744 232.000 C 2.530 232.770,2.171 234.030,1.947 234.800 C 1.463 236.463,0.896 239.046,0.411 241.800 C -0.048 244.405,-0.048 278.395,0.411 281.000 C 0.897 283.757,1.460 286.321,1.970 288.100 C 2.206 288.925,2.565 290.185,2.767 290.900 C 11.199 320.785,37.144 347.253,67.594 357.034 C 69.247 357.565,71.153 358.180,71.828 358.400 C 72.504 358.620,73.413 358.800,73.848 358.800 C 74.284 358.800,74.811 358.962,75.020 359.159 C 75.229 359.356,76.120 359.619,77.000 359.743 C 77.880 359.867,79.680 360.163,81.000 360.401 C 88.329 361.722,89.521 361.735,199.200 361.732 C 277.352 361.730,309.571 361.602,312.000 361.283 C 317.811 360.521,323.087 359.456,328.000 358.054 C 328.770 357.834,329.850 357.537,330.400 357.394 C 330.950 357.250,331.760 356.986,332.200 356.807 C 332.640 356.628,333.630 356.264,334.400 356.000 C 340.694 353.839,350.686 348.776,356.400 344.853 C 376.011 331.388,391.295 310.744,397.233 289.700 C 397.435 288.985,397.794 287.725,398.030 286.900 C 398.618 284.851,399.155 282.293,399.644 279.220 C 400.213 275.647,399.912 239.425,399.301 237.800 C 399.053 237.140,398.643 235.790,398.392 234.800 C 391.095 206.091,371.620 182.009,344.738 168.452 C 343.074 167.613,342.849 167.337,342.628 165.857 C 342.492 164.945,342.200 163.030,341.979 161.600 C 341.758 160.170,341.475 158.190,341.350 157.200 C 341.225 156.210,340.960 155.229,340.761 155.020 C 340.563 154.811,340.400 154.104,340.400 153.448 C 340.400 152.793,340.232 151.704,340.027 151.028 C 339.822 150.353,339.447 148.990,339.194 148.000 C 338.225 144.210,337.871 142.930,337.200 140.800 C 336.819 139.590,336.271 137.790,335.982 136.800 C 335.692 135.810,335.346 134.820,335.211 134.600 C 335.077 134.380,334.737 133.480,334.457 132.600 C 333.897 130.843,333.881 130.802,331.996 126.200 C 317.165 89.992,287.497 58.997,253.600 44.300 C 252.830 43.966,251.347 43.312,250.304 42.847 C 249.262 42.381,248.224 42.000,247.999 42.000 C 247.774 42.000,247.277 41.841,246.895 41.647 C 245.066 40.717,239.653 38.799,236.400 37.929 C 235.630 37.723,234.370 37.373,233.600 37.151 C 227.845 35.490,220.287 34.026,213.000 33.160 C 208.873 32.670,187.902 32.232,187.506 32.627 M211.200 60.804 C 211.750 60.991,213.190 61.243,214.400 61.364 C 216.799 61.603,219.645 62.111,222.300 62.775 C 223.235 63.009,224.675 63.368,225.500 63.573 C 246.874 68.894,268.564 82.483,283.939 100.185 C 296.903 115.112,306.523 132.932,311.642 151.500 C 311.839 152.215,312.192 153.475,312.427 154.300 C 314.271 160.786,316.321 170.432,317.123 176.400 C 317.518 179.345,317.386 179.210,322.504 181.903 C 339.550 190.871,354.218 204.610,363.024 219.857 C 365.988 224.990,369.072 231.854,370.051 235.500 C 370.243 236.215,370.594 237.475,370.830 238.300 C 372.496 244.107,372.908 247.805,372.918 257.000 C 372.930 268.676,372.045 274.628,368.860 284.290 C 362.403 303.881,345.841 320.597,324.800 328.757 C 322.930 329.483,321.040 330.227,320.600 330.412 C 320.160 330.596,319.080 330.964,318.200 331.229 C 317.320 331.494,316.240 331.852,315.800 332.025 C 315.360 332.198,314.550 332.431,314.000 332.542 C 313.450 332.653,312.280 332.950,311.400 333.202 C 307.059 334.445,299.707 335.710,292.400 336.472 C 289.502 336.774,260.494 336.920,198.800 336.943 C 102.197 336.980,102.785 336.991,90.600 334.800 C 89.280 334.563,87.524 334.267,86.697 334.142 C 85.871 334.017,85.095 333.755,84.974 333.558 C 84.852 333.361,84.371 333.200,83.905 333.200 C 83.438 333.200,82.504 333.020,81.828 332.800 C 81.153 332.580,79.250 331.966,77.600 331.436 C 52.500 323.371,34.655 305.613,28.322 282.400 C 26.177 274.540,25.511 268.863,25.504 258.400 C 25.498 248.828,25.893 245.080,27.529 239.200 C 31.778 223.932,41.394 209.113,54.270 197.989 C 61.464 191.773,71.665 187.201,83.400 184.932 C 85.322 184.560,102.580 184.540,104.000 184.908 C 104.550 185.050,105.851 185.274,106.891 185.406 L 108.782 185.646 107.891 186.975 C 104.033 192.728,102.917 194.583,101.054 198.333 C 98.873 202.721,96.879 207.632,95.990 210.800 C 95.712 211.790,95.225 213.410,94.908 214.400 C 94.265 216.405,93.720 219.003,93.189 222.600 C 92.994 223.920,92.606 226.440,92.326 228.200 C 91.655 232.424,91.654 246.506,92.324 250.400 C 92.607 252.050,93.001 254.480,93.199 255.800 C 93.397 257.120,93.741 259.100,93.964 260.200 C 94.187 261.300,94.487 262.787,94.631 263.505 C 94.775 264.223,95.051 264.908,95.246 265.029 C 95.441 265.149,95.600 265.642,95.600 266.125 C 95.600 266.608,96.062 268.263,96.627 269.802 C 97.192 271.341,97.922 273.373,98.249 274.318 C 100.849 281.824,108.494 293.428,114.605 299.145 C 119.598 303.816,129.223 309.998,131.505 310.000 C 131.783 310.000,132.323 310.168,132.705 310.374 C 137.722 313.077,154.678 313.077,159.695 310.374 C 160.077 310.168,160.576 310.000,160.805 310.000 C 164.705 310.000,179.767 298.470,183.958 292.275 C 184.311 291.754,185.697 289.702,187.037 287.716 C 190.595 282.444,194.877 273.347,196.413 267.800 C 197.907 262.402,198.530 259.920,198.825 258.200 C 201.468 242.756,200.843 226.319,197.122 213.400 C 184.059 168.044,143.295 151.600,114.299 179.989 L 109.998 184.200 109.993 174.600 C 109.990 169.320,109.824 164.741,109.624 164.424 C 109.117 163.623,105.647 163.160,98.466 162.935 L 92.332 162.743 92.540 160.471 C 92.738 158.298,93.045 156.443,94.005 151.600 C 94.244 150.390,94.541 148.724,94.663 147.897 C 94.785 147.071,95.045 146.295,95.242 146.174 C 95.439 146.052,95.600 145.571,95.600 145.105 C 95.600 144.638,95.779 143.704,95.998 143.028 C 96.217 142.353,97.122 139.550,98.009 136.800 C 98.897 134.050,99.798 131.487,100.011 131.105 C 100.225 130.723,100.400 130.244,100.400 130.040 C 100.400 129.503,102.265 125.289,104.866 119.947 C 118.412 92.134,141.946 71.664,168.800 64.337 C 169.570 64.127,170.830 63.771,171.600 63.547 C 176.791 62.036,184.214 60.834,190.800 60.439 C 196.714 60.085,209.774 60.318,211.200 60.804 M242.400 171.753 C 242.400 171.838,242.850 171.993,243.400 172.098 C 243.950 172.203,244.400 172.134,244.400 171.945 C 244.400 171.755,243.950 171.600,243.400 171.600 C 242.850 171.600,242.400 171.669,242.400 171.753 M237.033 173.857 C 236.639 174.884,237.062 174.960,238.049 174.040 C 238.939 173.211,238.940 173.200,238.118 173.200 C 237.660 173.200,237.172 173.496,237.033 173.857 M249.700 174.452 C 249.871 175.222,251.773 176.990,252.306 176.873 C 252.585 176.812,252.772 176.906,252.721 177.081 C 252.557 177.654,253.615 179.200,254.171 179.200 C 254.470 179.200,254.818 179.470,254.945 179.800 C 255.071 180.130,255.406 180.395,255.687 180.389 C 255.969 180.383,255.525 179.751,254.700 178.984 C 253.875 178.217,253.200 177.416,253.200 177.205 C 253.200 176.993,252.673 176.548,252.028 176.215 C 251.384 175.881,250.742 175.247,250.601 174.804 C 250.337 173.971,249.523 173.653,249.700 174.452 M152.400 176.306 C 161.122 178.223,168.530 183.096,176.000 191.831 C 179.971 196.474,185.388 206.806,187.204 213.200 C 187.485 214.190,187.986 215.810,188.316 216.800 C 189.080 219.089,189.654 222.276,190.875 231.000 C 191.456 235.151,191.451 243.287,190.864 247.600 C 189.617 256.777,189.109 259.616,188.255 262.200 C 187.891 263.300,187.402 264.830,187.168 265.600 C 182.801 279.951,172.388 293.419,161.400 298.929 C 158.938 300.164,157.398 300.744,152.172 302.409 C 151.496 302.624,149.696 302.782,148.172 302.759 C 145.162 302.715,145.452 302.544,150.200 301.566 C 151.520 301.294,152.771 300.920,152.980 300.736 C 153.189 300.551,153.655 300.400,154.016 300.400 C 155.191 300.400,162.243 296.563,165.310 294.255 C 173.202 288.315,181.172 277.347,184.824 267.400 C 189.130 255.669,190.646 242.906,189.288 229.800 C 188.927 226.323,188.509 224.182,186.826 217.200 C 184.488 207.501,176.952 194.671,169.591 187.856 C 163.080 181.828,152.554 176.466,147.047 176.372 C 146.141 176.356,145.040 176.181,144.600 175.983 C 143.541 175.505,149.968 175.772,152.400 176.306 M234.414 176.773 C 233.410 178.650,233.203 179.600,233.797 179.600 C 234.146 179.600,234.284 179.363,234.145 179.000 C 234.018 178.670,234.114 178.400,234.357 178.400 C 234.601 178.400,234.779 178.265,234.753 178.100 C 234.627 177.306,234.840 176.777,235.195 176.997 C 235.422 177.137,235.489 176.977,235.353 176.621 C 235.044 175.817,234.915 175.838,234.414 176.773 M259.200 184.786 C 259.200 184.998,259.560 185.365,260.000 185.600 C 260.881 186.072,261.075 185.635,260.320 184.880 C 259.742 184.302,259.200 184.256,259.200 184.786 M234.400 186.400 C 234.400 186.620,234.681 186.800,235.024 186.800 C 235.367 186.800,235.552 186.953,235.436 187.141 C 235.320 187.329,235.481 187.824,235.793 188.241 C 236.326 188.954,236.346 188.940,236.122 188.000 C 235.750 186.435,234.400 185.181,234.400 186.400 M261.613 187.900 C 261.643 188.607,262.720 189.639,262.892 189.125 C 262.987 188.840,262.838 188.381,262.561 188.104 C 261.994 187.537,261.594 187.451,261.613 187.900 M263.867 190.969 C 263.748 191.280,263.909 191.633,264.225 191.754 C 264.557 191.882,264.800 191.737,264.800 191.411 C 264.800 190.613,264.126 190.294,263.867 190.969 M265.870 193.700 C 266.045 193.975,266.191 194.320,266.194 194.467 C 266.197 194.613,266.321 194.855,266.470 195.003 C 266.618 195.152,266.677 194.942,266.601 194.537 C 266.524 194.131,266.447 193.665,266.431 193.500 C 266.414 193.335,266.209 193.200,265.976 193.200 C 265.735 193.200,265.689 193.415,265.870 193.700 M242.555 194.573 C 242.243 195.385,244.036 197.724,244.565 197.195 C 244.845 196.915,244.628 196.463,243.879 195.768 C 243.276 195.209,242.887 194.582,243.015 194.376 C 243.143 194.169,243.141 194.000,243.011 194.000 C 242.881 194.000,242.676 194.258,242.555 194.573 M139.612 199.238 C 144.685 201.942,150.234 207.706,153.115 213.263 C 154.543 216.016,154.387 215.829,151.455 211.264 C 148.178 206.164,144.340 202.537,138.809 199.312 C 135.984 197.665,136.560 197.612,139.612 199.238 M247.753 201.676 C 247.591 201.938,247.670 202.223,247.929 202.310 C 248.188 202.396,248.400 202.722,248.400 203.033 C 248.400 203.716,249.041 203.781,249.438 203.138 C 249.615 202.852,249.548 202.785,249.262 202.962 C 248.988 203.131,248.800 202.993,248.800 202.624 C 248.800 202.281,248.609 202.000,248.376 202.000 C 248.143 202.000,248.064 201.820,248.200 201.600 C 248.336 201.380,248.357 201.200,248.247 201.200 C 248.137 201.200,247.915 201.414,247.753 201.676 M213.875 201.858 C 213.834 201.899,213.217 201.999,212.505 202.081 C 205.502 202.880,202.974 213.771,208.567 219.047 C 209.355 219.790,210.000 220.589,210.000 220.823 C 210.000 221.056,210.180 221.136,210.400 221.000 C 210.620 220.864,210.800 221.029,210.800 221.367 C 210.800 221.705,211.248 222.275,211.797 222.635 C 212.345 222.994,212.714 223.415,212.618 223.571 C 212.522 223.727,212.838 224.292,213.321 224.827 C 213.805 225.362,214.455 226.295,214.768 226.900 C 215.080 227.505,215.495 228.000,215.691 228.000 C 215.887 228.000,215.945 228.165,215.820 228.368 C 215.695 228.570,215.877 229.020,216.225 229.368 C 216.573 229.715,216.761 230.000,216.643 230.000 C 216.525 230.000,216.781 230.822,217.211 231.826 C 217.642 232.830,218.079 234.045,218.184 234.526 C 218.289 235.007,218.525 236.030,218.709 236.800 C 219.116 238.503,219.047 245.277,218.616 245.974 C 218.445 246.250,218.235 247.206,218.148 248.097 C 218.059 249.016,217.689 249.948,217.295 250.247 C 216.913 250.537,216.748 250.780,216.929 250.787 C 217.109 250.794,216.973 251.085,216.625 251.432 C 216.277 251.780,216.095 252.230,216.220 252.432 C 216.345 252.635,216.298 252.800,216.115 252.800 C 215.932 252.800,215.428 253.475,214.995 254.300 C 214.562 255.125,214.116 255.890,214.004 256.000 C 213.160 256.828,209.589 261.200,209.756 261.200 C 209.873 261.200,209.240 261.965,208.351 262.900 C 205.543 265.853,204.412 270.516,205.836 273.269 C 206.155 273.887,206.409 274.485,206.400 274.600 C 206.346 275.296,207.793 277.305,208.619 277.682 C 209.159 277.927,209.600 278.266,209.600 278.433 C 209.600 278.700,211.568 279.496,212.924 279.776 C 213.186 279.831,213.885 280.010,214.477 280.175 C 215.070 280.340,215.781 280.336,216.057 280.165 C 216.333 279.994,217.019 279.800,217.580 279.735 C 218.141 279.669,218.825 279.582,219.100 279.541 C 219.375 279.500,219.600 279.207,219.600 278.891 C 219.600 278.552,219.839 278.406,220.180 278.537 C 220.758 278.759,225.804 274.471,225.419 274.085 C 225.313 273.980,225.671 273.545,226.214 273.118 C 226.756 272.691,227.200 272.151,227.200 271.918 C 227.200 271.684,227.624 271.112,228.143 270.647 C 229.065 269.819,232.185 265.393,232.405 264.600 C 232.466 264.380,232.973 263.480,233.532 262.600 C 234.622 260.883,237.306 254.800,236.973 254.800 C 236.862 254.800,236.971 254.428,237.214 253.974 C 237.732 253.005,238.008 251.829,238.074 250.300 C 238.100 249.695,238.245 249.200,238.396 249.200 C 238.547 249.200,238.709 248.615,238.755 247.900 C 238.938 245.101,239.039 244.428,239.314 244.153 C 239.687 243.780,239.687 238.220,239.314 237.847 C 239.157 237.690,238.996 237.165,238.957 236.681 C 238.918 236.196,238.830 235.125,238.761 234.300 C 238.693 233.475,238.523 232.800,238.385 232.800 C 238.247 232.800,238.103 232.260,238.067 231.600 C 237.951 229.524,237.876 229.200,237.510 229.200 C 237.313 229.200,237.256 229.032,237.383 228.828 C 237.509 228.623,237.418 228.335,237.179 228.187 C 236.941 228.040,236.838 227.677,236.952 227.380 C 237.066 227.084,236.718 226.013,236.179 225.000 C 235.641 223.987,235.200 222.897,235.200 222.579 C 235.200 222.260,235.026 222.000,234.813 222.000 C 234.599 222.000,234.529 221.730,234.655 221.400 C 234.786 221.060,234.665 220.800,234.376 220.800 C 234.096 220.800,233.981 220.686,234.120 220.546 C 234.260 220.407,234.020 219.843,233.587 219.292 C 233.154 218.742,232.800 218.104,232.800 217.874 C 232.800 217.256,229.565 212.400,229.153 212.400 C 228.959 212.400,228.845 212.244,228.900 212.054 C 229.063 211.489,222.444 203.822,222.095 204.171 C 221.996 204.270,221.473 203.909,220.932 203.368 C 220.391 202.827,219.780 202.489,219.574 202.616 C 219.368 202.743,219.200 202.695,219.200 202.509 C 219.200 202.323,218.615 202.118,217.900 202.055 C 215.782 201.868,213.955 201.778,213.875 201.858 M93.693 204.932 C 89.901 207.729,85.161 216.782,83.604 224.200 C 83.419 225.080,82.974 226.970,82.615 228.400 C 81.828 231.532,81.933 248.128,82.760 251.200 C 83.026 252.190,83.396 253.720,83.581 254.600 C 85.331 262.901,92.096 274.400,95.229 274.400 C 96.964 274.400,97.038 273.188,95.572 268.795 C 94.875 266.708,94.137 264.280,93.931 263.400 C 92.586 257.654,92.050 254.880,91.535 251.000 C 90.926 246.410,90.668 232.976,91.143 230.600 C 91.363 229.500,91.746 226.989,91.995 225.019 C 92.628 219.995,93.273 217.232,95.443 210.240 C 97.283 204.313,96.745 202.680,93.693 204.932 M250.432 205.697 C 250.337 206.592,251.850 209.190,252.353 208.996 C 252.795 208.827,252.814 208.901,252.443 209.348 C 252.076 209.790,252.111 210.054,252.600 210.543 C 252.946 210.889,253.224 211.313,253.219 211.486 C 253.194 212.327,253.705 213.182,254.092 212.943 C 254.375 212.768,254.447 212.975,254.300 213.537 C 254.176 214.012,254.249 214.400,254.461 214.400 C 254.673 214.400,254.744 214.568,254.617 214.772 C 254.389 215.141,255.109 215.825,255.409 215.525 C 255.689 215.244,254.494 212.231,254.042 212.081 C 253.799 212.000,253.600 211.618,253.600 211.233 C 253.600 210.848,253.467 210.401,253.305 210.238 C 253.143 210.076,253.008 209.688,253.005 209.376 C 253.002 209.064,252.820 208.770,252.600 208.722 C 252.010 208.595,251.162 206.784,251.464 206.297 C 251.608 206.063,251.534 205.994,251.296 206.141 C 251.061 206.286,250.777 206.179,250.666 205.902 C 250.554 205.626,250.449 205.534,250.432 205.697 M273.628 209.700 C 273.613 210.305,273.780 210.800,274.000 210.800 C 274.469 210.800,274.469 210.493,274.000 209.400 C 273.695 208.691,273.653 208.725,273.628 209.700 M274.400 213.176 C 274.400 213.383,274.585 213.667,274.811 213.807 C 275.036 213.946,275.195 214.272,275.163 214.530 C 274.980 216.014,275.231 216.763,275.834 216.532 C 276.182 216.398,276.317 216.179,276.134 216.044 C 275.826 215.819,275.747 215.496,275.512 213.500 C 275.428 212.788,274.400 212.489,274.400 213.176 M255.080 216.664 C 255.192 216.956,255.445 217.096,255.642 216.974 C 255.839 216.852,256.000 216.973,256.000 217.243 C 256.000 217.513,256.094 217.639,256.209 217.524 C 256.572 217.161,255.990 216.133,255.421 216.133 C 255.121 216.133,254.968 216.372,255.080 216.664 M276.176 218.838 C 276.023 219.086,276.116 219.424,276.383 219.589 C 276.650 219.754,276.853 220.004,276.834 220.145 C 276.641 221.586,277.311 223.222,277.867 222.667 C 278.037 222.496,277.965 222.226,277.707 222.066 C 277.448 221.906,277.191 221.093,277.135 220.260 C 277.027 218.659,276.641 218.087,276.176 218.838 M257.032 221.549 C 256.878 221.797,256.938 222.000,257.164 222.000 C 257.390 222.000,257.464 222.315,257.329 222.700 C 257.137 223.245,257.193 223.298,257.583 222.939 C 257.927 222.621,257.963 222.262,257.697 221.787 C 257.436 221.321,257.220 221.243,257.032 221.549 M258.000 226.357 C 258.000 226.774,258.242 227.207,258.538 227.321 C 258.923 227.468,259.023 227.254,258.891 226.563 C 258.673 225.423,258.000 225.268,258.000 226.357 M277.537 227.109 C 277.732 227.489,277.820 227.998,277.733 228.240 C 277.645 228.482,277.894 228.932,278.287 229.240 C 278.943 229.755,278.954 229.741,278.426 229.070 C 277.927 228.435,277.927 228.291,278.426 227.976 C 278.859 227.701,278.872 227.611,278.476 227.606 C 278.188 227.603,278.052 227.439,278.174 227.242 C 278.296 227.045,278.122 226.779,277.788 226.651 C 277.320 226.471,277.263 226.576,277.537 227.109 M258.519 229.900 C 258.816 230.505,258.994 231.360,258.915 231.800 C 258.801 232.430,258.848 232.473,259.136 232.000 C 259.780 230.943,259.264 228.800,258.366 228.800 C 258.153 228.800,258.222 229.295,258.519 229.900 M258.859 235.800 C 258.863 237.645,258.895 237.712,259.277 236.664 C 259.563 235.879,259.561 235.262,259.272 234.664 C 258.922 233.941,258.855 234.126,258.859 235.800 M278.114 235.800 C 278.117 236.900,278.195 237.303,278.287 236.695 C 278.379 236.086,278.377 235.186,278.282 234.695 C 278.187 234.203,278.111 234.700,278.114 235.800 M278.164 239.821 C 278.145 240.561,278.280 241.074,278.465 240.960 C 278.882 240.702,278.908 238.914,278.499 238.661 C 278.333 238.559,278.182 239.081,278.164 239.821 M258.887 240.373 C 258.906 241.064,259.051 241.708,259.208 241.805 C 259.505 241.988,259.332 239.598,259.026 239.292 C 258.930 239.196,258.867 239.683,258.887 240.373 M277.550 245.800 C 277.522 246.130,277.475 246.715,277.444 247.100 C 277.413 247.485,277.229 248.070,277.035 248.400 C 276.750 248.886,276.784 248.906,277.216 248.505 C 277.714 248.043,278.208 245.200,277.790 245.200 C 277.686 245.200,277.578 245.470,277.550 245.800 M257.494 247.839 C 257.363 247.971,257.358 248.346,257.483 248.673 C 257.669 249.157,257.774 249.168,258.050 248.734 C 258.639 247.803,258.214 247.119,257.494 247.839 M277.170 249.500 C 277.154 249.665,277.065 250.205,276.973 250.700 C 276.734 251.979,277.047 251.814,277.540 250.400 C 277.794 249.671,277.809 249.200,277.579 249.200 C 277.371 249.200,277.187 249.335,277.170 249.500 M256.764 250.100 C 256.541 250.721,256.581 253.136,256.812 252.993 C 257.121 252.801,257.260 250.000,256.960 250.000 C 256.872 250.000,256.784 250.045,256.764 250.100 M276.271 252.300 C 275.788 253.119,275.571 255.200,275.968 255.200 C 276.373 255.200,276.589 254.084,276.421 252.860 C 276.375 252.529,276.536 252.437,276.835 252.622 C 277.147 252.815,277.221 252.757,277.038 252.462 C 276.706 251.924,276.516 251.884,276.271 252.300 M255.622 254.358 C 255.333 254.898,255.358 255.233,255.708 255.523 C 256.076 255.827,256.221 255.636,256.284 254.765 C 256.381 253.412,256.191 253.295,255.622 254.358 M254.641 256.670 C 254.514 257.071,254.392 257.580,254.371 257.800 C 254.349 258.020,254.122 258.454,253.866 258.765 C 253.499 259.211,253.523 259.289,253.982 259.138 C 254.302 259.032,254.717 258.353,254.904 257.629 C 255.264 256.241,255.038 255.419,254.641 256.670 M253.246 259.900 C 253.221 260.175,253.215 260.515,253.234 260.655 C 253.253 260.796,253.051 261.045,252.785 261.209 C 252.520 261.373,252.384 261.753,252.484 262.053 C 252.747 262.841,253.699 260.940,253.472 260.079 C 253.373 259.706,253.272 259.625,253.246 259.900 M273.521 261.103 C 272.954 262.062,272.943 262.308,273.435 262.980 C 273.959 263.696,274.000 263.643,274.000 262.253 C 274.000 261.355,274.160 260.852,274.400 261.000 C 274.620 261.136,274.800 260.967,274.800 260.624 C 274.800 259.670,274.244 259.879,273.521 261.103 M272.676 263.476 C 272.553 263.675,272.598 264.074,272.776 264.362 C 272.954 264.650,273.201 264.723,273.324 264.524 C 273.447 264.325,273.402 263.926,273.224 263.638 C 273.046 263.350,272.799 263.277,272.676 263.476 M251.312 264.186 C 250.927 264.623,250.927 264.783,251.312 264.939 C 251.581 265.048,251.476 265.151,251.076 265.168 C 250.678 265.186,250.469 265.389,250.612 265.619 C 250.789 265.907,251.048 265.892,251.431 265.574 C 251.739 265.318,251.893 264.950,251.772 264.755 C 251.651 264.560,251.743 264.400,251.976 264.400 C 252.209 264.400,252.400 264.220,252.400 264.000 C 252.400 263.441,251.890 263.528,251.312 264.186 M272.353 265.500 C 272.327 265.665,272.327 265.935,272.353 266.100 C 272.379 266.265,272.220 266.400,272.000 266.400 C 271.780 266.400,271.611 266.805,271.625 267.300 L 271.651 268.200 272.014 267.296 C 272.214 266.798,272.367 266.279,272.354 266.141 C 272.342 266.002,272.572 265.737,272.866 265.551 C 273.265 265.298,273.274 265.211,272.900 265.206 C 272.625 265.203,272.379 265.335,272.353 265.500 M248.588 269.180 C 248.714 269.384,248.498 269.736,248.108 269.963 C 247.719 270.190,247.580 270.375,247.800 270.375 C 248.713 270.374,249.668 269.312,248.991 269.052 C 248.643 268.918,248.462 268.976,248.588 269.180 M247.280 271.280 C 246.615 271.945,246.679 272.421,247.398 272.146 C 247.726 272.019,247.905 271.770,247.795 271.592 C 247.685 271.414,247.821 271.177,248.098 271.066 C 248.374 270.954,248.411 270.849,248.180 270.832 C 247.949 270.814,247.544 271.016,247.280 271.280 M267.600 274.400 C 267.115 274.714,267.172 274.789,267.900 274.794 C 268.395 274.797,268.800 274.620,268.800 274.400 C 268.800 273.899,268.376 273.899,267.600 274.400 M243.400 276.800 C 243.002 277.240,242.801 277.600,242.955 277.600 C 243.108 277.600,243.620 277.240,244.092 276.800 C 244.564 276.360,244.765 276.000,244.537 276.000 C 244.310 276.000,243.798 276.360,243.400 276.800 M265.283 278.816 C 264.780 279.622,265.033 279.821,265.879 279.283 C 266.142 279.116,266.226 278.766,266.065 278.505 C 265.860 278.173,265.626 278.266,265.283 278.816 M240.007 280.787 C 239.755 281.257,239.630 281.947,239.728 282.321 C 239.869 282.854,239.917 282.824,239.954 282.180 C 239.979 281.729,240.213 281.147,240.473 280.887 C 240.734 280.626,240.838 280.305,240.706 280.172 C 240.573 280.040,240.259 280.316,240.007 280.787 M238.475 282.754 C 238.178 282.938,238.087 283.362,238.254 283.796 C 238.509 284.461,238.566 284.443,238.876 283.606 C 239.273 282.534,239.173 282.322,238.475 282.754 M262.080 283.680 C 261.816 283.944,261.612 284.439,261.627 284.780 C 261.645 285.197,261.794 285.111,262.080 284.519 C 262.314 284.035,262.796 283.561,263.153 283.466 C 263.705 283.318,263.709 283.286,263.180 283.246 C 262.839 283.221,262.344 283.416,262.080 283.680 M236.767 285.040 C 236.256 285.655,235.904 286.800,236.225 286.800 C 236.310 286.800,236.659 286.260,237.000 285.600 C 237.683 284.279,237.588 284.051,236.767 285.040 M260.176 286.987 C 259.517 287.486,259.499 287.576,260.057 287.587 C 260.419 287.594,260.818 287.330,260.945 287.000 C 261.231 286.255,261.147 286.253,260.176 286.987 M234.267 288.267 C 234.120 288.413,234.000 288.848,234.000 289.233 C 234.000 289.618,233.775 290.024,233.500 290.135 C 233.183 290.263,233.240 290.348,233.655 290.368 C 234.086 290.389,234.369 289.991,234.485 289.200 C 234.676 287.904,234.667 287.866,234.267 288.267 M257.338 290.617 C 256.978 291.555,257.367 291.666,257.919 290.782 C 258.228 290.287,258.254 290.000,257.991 290.000 C 257.762 290.000,257.468 290.278,257.338 290.617 M255.274 293.039 C 253.949 294.535,253.692 295.200,254.437 295.200 C 254.678 295.200,254.969 294.840,255.084 294.400 C 255.199 293.960,255.463 293.600,255.670 293.600 C 255.878 293.600,255.965 293.465,255.866 293.300 C 255.607 292.873,256.652 291.992,257.022 292.324 C 257.190 292.476,257.199 292.375,257.041 292.100 C 256.658 291.435,256.725 291.399,255.274 293.039 M234.277 296.900 C 234.675 297.615,235.135 298.260,235.300 298.333 C 235.465 298.407,235.600 298.727,235.600 299.046 C 235.600 299.364,235.915 299.743,236.300 299.888 C 236.685 300.032,237.219 300.432,237.487 300.775 C 237.780 301.150,237.980 301.212,237.987 300.929 C 238.002 300.373,236.906 299.200,236.371 299.200 C 236.167 299.200,236.000 298.930,236.000 298.600 C 236.000 298.270,235.809 298.000,235.576 298.000 C 235.343 298.000,235.265 297.819,235.402 297.597 C 235.539 297.376,235.369 297.086,235.025 296.954 C 234.681 296.822,234.400 296.464,234.400 296.157 C 234.400 295.851,234.210 295.600,233.977 295.600 C 233.742 295.600,233.875 296.176,234.277 296.900 M251.600 297.292 C 251.050 297.979,250.455 298.914,250.277 299.370 C 249.931 300.261,250.179 300.047,251.432 298.373 C 251.854 297.808,252.380 297.323,252.600 297.294 C 253.080 297.232,253.402 295.990,252.929 296.022 C 252.748 296.034,252.150 296.606,251.600 297.292 M240.628 302.031 C 241.048 302.495,241.443 302.670,241.524 302.428 C 241.603 302.190,241.861 302.114,242.096 302.259 C 242.351 302.417,242.407 302.334,242.234 302.055 C 242.075 301.798,241.790 301.683,241.600 301.800 C 241.410 301.917,241.142 301.830,241.004 301.607 C 240.866 301.383,240.556 301.200,240.314 301.200 C 240.073 301.200,240.214 301.574,240.628 302.031 M245.429 301.809 C 245.005 302.129,244.805 302.529,244.984 302.696 C 245.163 302.863,245.390 302.775,245.488 302.500 C 245.586 302.225,246.001 302.000,246.410 302.000 C 246.818 302.000,247.264 301.820,247.400 301.600 C 247.776 300.991,246.303 301.147,245.429 301.809 " stroke="none" fill="#000000" fill-rule="evenodd"></path></g></svg>