<svg id="svg" xmlns="http://www.w3.org/2000/svg" xmlns:xlink="http://www.w3.org/1999/xlink" width="400" height="331.25" viewBox="0, 0, 400,331.25"><g id="svgg"><path id="path0" d="M20.344 0.496 C 10.574 1.721,2.474 9.311,0.361 19.219 C -0.081 21.294,-0.081 309.175,0.361 311.250 C 2.496 321.262,10.583 328.768,20.547 329.984 C 22.549 330.228,377.451 330.228,379.453 329.984 C 389.417 328.768,397.504 321.262,399.639 311.250 C 400.081 309.175,400.081 21.294,399.639 19.219 C 397.504 9.207,389.417 1.701,379.453 0.485 C 377.666 0.267,22.084 0.278,20.344 0.496 M354.402 34.483 C 361.232 36.431,365.683 41.730,366.252 48.587 C 366.455 51.039,366.455 279.430,366.252 281.882 C 365.681 288.773,361.111 294.174,354.318 295.989 L 353.047 296.328 200.000 296.328 L 46.953 296.328 45.682 295.989 C 38.927 294.184,34.356 288.815,33.750 281.971 C 33.543 279.631,33.541 51.086,33.748 48.587 C 34.345 41.386,39.555 35.573,46.548 34.305 C 47.551 34.123,71.403 34.094,200.469 34.115 L 353.203 34.141 354.402 34.483 M179.063 160.078 L 179.063 200.625 183.747 200.625 L 188.432 200.625 188.474 197.019 L 188.516 193.413 189.244 194.406 C 197.496 205.646,215.936 203.960,224.626 191.170 C 231.984 180.341,231.983 161.498,224.623 150.469 C 216.997 139.041,200.326 137.032,190.898 146.406 L 189.219 148.076 189.219 133.804 L 189.219 119.531 184.141 119.531 L 179.063 119.531 179.063 160.078 M138.281 140.575 C 128.877 141.101,121.697 144.332,118.205 149.609 C 116.696 151.889,115.090 155.803,114.765 157.988 L 114.658 158.710 115.181 158.802 C 115.468 158.853,117.531 159.144,119.766 159.449 C 122.000 159.753,123.978 160.037,124.162 160.078 C 124.461 160.145,124.539 160.011,124.918 158.788 C 127.177 151.496,131.091 148.892,139.762 148.911 C 147.149 148.927,151.776 151.293,153.193 155.779 C 153.834 157.808,154.168 162.573,153.711 163.159 C 153.110 163.930,145.266 165.509,136.406 166.642 C 127.036 167.840,123.972 168.734,119.959 171.439 C 110.601 177.746,110.464 192.174,119.702 198.447 C 123.231 200.844,126.983 201.782,133.047 201.786 C 140.998 201.791,146.572 199.813,153.148 194.653 L 154.656 193.470 154.840 194.723 C 155.077 196.348,155.516 198.075,156.051 199.492 L 156.478 200.625 161.755 200.625 C 164.657 200.625,167.031 200.600,167.031 200.569 C 167.031 200.537,166.758 199.922,166.423 199.201 C 164.288 194.601,164.222 193.885,164.064 173.438 C 163.917 154.252,163.876 153.649,162.500 150.313 C 159.602 143.284,151.082 139.859,138.281 140.575 M262.776 140.643 C 247.404 142.125,239.111 153.033,239.150 171.719 C 239.190 190.775,248.847 201.776,265.547 201.788 C 278.348 201.798,287.242 194.612,289.857 182.149 C 290.051 181.226,290.180 180.441,290.144 180.405 C 290.058 180.320,281.108 179.063,280.591 179.063 C 280.225 179.063,280.183 179.133,280.085 179.922 C 279.051 188.195,273.425 193.467,265.625 193.473 C 256.664 193.480,251.038 187.545,249.755 176.731 C 247.802 160.262,253.805 149.457,265.190 148.950 C 272.079 148.644,276.964 152.288,278.957 159.219 C 279.247 160.228,279.409 160.557,279.630 160.589 C 279.951 160.636,289.058 159.275,289.170 159.164 C 289.281 159.052,288.503 156.133,287.966 154.649 C 284.382 144.748,274.897 139.474,262.776 140.643 M206.999 149.154 C 216.560 151.119,221.663 163.267,219.140 178.056 C 216.450 193.823,200.159 199.080,191.907 186.843 C 187.616 180.482,187.122 165.561,190.949 157.946 C 194.273 151.331,200.635 147.846,206.999 149.154 M153.764 175.671 C 153.344 185.529,150.038 190.391,142.020 192.943 C 131.336 196.343,121.594 190.748,123.973 182.578 C 125.332 177.914,128.216 176.381,138.519 174.848 C 144.284 173.990,149.852 172.759,152.813 171.688 C 154.064 171.235,153.970 170.843,153.764 175.671 M261.406 260.938 L 261.406 268.906 293.516 268.906 L 325.625 268.906 325.625 260.938 L 325.625 252.969 293.516 252.969 L 261.406 252.969 261.406 260.938 " stroke="none" fill="#000000" fill-rule="evenodd"></path></g></svg>