<svg id="svg" version="1.1" xmlns="http://www.w3.org/2000/svg" xmlns:xlink="http://www.w3.org/1999/xlink" width="400" height="497.9591836734694" viewBox="0, 0, 400,497.9591836734694"><g id="svgg"><path id="path0" d="M210.541 1.635 C 103.961 7.438,24.088 133.408,35.723 277.347 C 44.860 390.398,110.770 481.298,193.980 495.608 C 202.266 497.034,207.540 497.449,217.347 497.449 C 327.948 497.449,412.610 366.489,398.557 217.143 C 386.675 90.874,304.363 -3.474,210.541 1.635 M223.980 23.899 C 329.475 31.114,402.640 175.352,371.723 315.161 C 342.283 448.290,233.553 513.422,143.265 452.012 C 139.080 449.165,138.966 449.032,141.892 450.404 C 236.181 494.613,338.218 421.368,359.177 294.430 C 379.094 173.806,316.524 56.008,222.857 37.786 C 195.638 32.490,165.757 36.493,141.378 48.701 C 138.576 50.104,138.619 50.007,141.786 47.803 C 167.391 29.974,195.076 21.923,223.980 23.899 M168.163 96.520 C 238.968 106.079,285.297 202.456,263.977 295.839 C 245.119 378.445,180.267 423.225,121.122 394.482 C 116.276 392.126,110.915 389.002,113.367 389.962 C 135.513 398.630,159.209 398.463,180.612 389.488 C 255.180 358.221,282.689 239.465,233.837 159.715 C 203.339 109.928,150.882 91.759,105.349 115.213 C 103.521 116.154,102.076 116.843,102.137 116.744 C 102.324 116.441,107.512 112.611,109.796 111.088 C 122.891 102.359,137.251 97.259,152.143 96.049 C 155.063 95.811,165.099 96.107,168.163 96.520 M39.413 134.106 C 10.887 163.672,-4.061 216.204,0.831 269.694 C 4.394 308.643,18.541 343.501,39.582 365.171 C 40.872 366.499,41.955 367.501,41.990 367.397 C 42.025 367.293,41.399 365.471,40.599 363.349 C 21.098 311.587,15.580 251.162,25.114 193.776 C 28.348 174.309,33.655 154.318,40.302 136.569 C 41.281 133.952,42.031 131.759,41.967 131.695 C 41.903 131.631,40.754 132.716,39.413 134.106 " stroke="none" fill="#000000" fill-rule="evenodd"></path></g></svg>