<svg id="svg" version="1.1" xmlns="http://www.w3.org/2000/svg" xmlns:xlink="http://www.w3.org/1999/xlink" width="400" height="400" viewBox="0, 0, 400,400"><g id="svgg"><path id="path0" d="M318.600 36.468 C 306.970 40.397,304.132 54.597,313.219 63.400 C 322.559 72.449,335.388 89.579,343.622 104.000 C 345.444 107.190,347.129 109.932,347.367 110.094 C 347.605 110.256,347.677 110.391,347.526 110.394 C 347.173 110.402,352.827 122.157,353.270 122.334 C 353.454 122.408,353.521 122.603,353.419 122.769 C 353.317 122.934,353.930 124.685,354.782 126.660 C 355.633 128.635,356.780 131.592,357.331 133.231 C 357.881 134.871,358.596 136.929,358.920 137.806 C 359.533 139.467,360.641 142.936,361.219 145.000 C 361.404 145.660,361.759 146.920,362.008 147.800 C 362.257 148.680,362.627 150.165,362.830 151.100 C 363.034 152.035,363.372 153.565,363.583 154.500 C 363.793 155.435,364.142 157.145,364.358 158.299 C 364.575 159.453,364.866 160.583,365.005 160.809 C 365.145 161.035,365.330 161.980,365.417 162.910 C 365.504 163.839,365.770 165.950,366.009 167.600 C 368.441 184.404,367.520 204.887,363.581 221.600 C 363.347 222.590,363.000 224.120,362.808 225.000 C 362.617 225.880,362.279 227.230,362.057 228.000 C 361.835 228.770,361.537 229.850,361.394 230.400 C 361.250 230.950,360.990 231.760,360.814 232.200 C 360.639 232.640,359.902 234.890,359.176 237.200 C 358.449 239.510,357.708 241.571,357.528 241.780 C 357.347 241.989,357.200 242.381,357.200 242.651 C 357.200 244.561,347.748 264.272,343.223 271.800 C 341.900 274.000,340.814 276.010,340.809 276.267 C 340.804 276.523,340.653 276.793,340.474 276.867 C 340.294 276.940,338.458 279.520,336.393 282.600 C 329.823 292.399,323.455 300.593,313.917 311.519 C 308.216 318.051,306.729 322.219,308.152 327.680 C 311.303 339.767,325.254 344.183,334.229 335.936 C 338.192 332.295,352.124 315.255,357.725 307.200 C 358.569 305.985,366.902 293.480,367.986 291.800 C 370.132 288.474,376.000 277.748,376.000 277.151 C 376.000 276.775,376.158 276.407,376.352 276.333 C 376.864 276.140,380.342 269.045,382.987 262.800 C 387.148 252.975,387.630 251.681,390.583 242.400 C 390.968 241.190,391.445 239.615,391.642 238.900 C 391.839 238.185,392.192 236.925,392.427 236.100 C 393.323 232.949,394.347 228.473,395.608 222.200 C 399.262 204.027,399.603 177.842,396.437 158.600 C 395.170 150.897,393.578 143.791,391.577 136.900 C 391.370 136.185,391.039 135.015,390.842 134.300 C 390.102 131.615,389.114 128.576,388.763 127.905 C 388.563 127.523,388.400 126.936,388.400 126.600 C 388.400 126.264,388.234 125.677,388.032 125.295 C 387.830 124.913,387.307 123.610,386.870 122.400 C 385.646 119.006,383.991 114.728,383.388 113.400 C 383.088 112.740,382.014 110.310,381.002 108.000 C 371.277 85.818,354.138 60.290,337.706 43.513 C 330.280 35.932,325.454 34.152,318.600 36.468 M264.961 84.957 C 264.831 85.295,264.422 85.426,263.912 85.293 C 263.342 85.144,263.166 85.222,263.361 85.537 C 263.518 85.792,263.457 86.000,263.224 86.000 C 262.991 86.000,262.794 85.775,262.787 85.500 C 262.779 85.170,262.609 85.216,262.287 85.635 C 262.019 85.984,261.575 86.194,261.300 86.102 C 261.025 86.009,260.800 86.206,260.800 86.540 C 260.800 86.905,260.361 87.197,259.700 87.273 C 258.963 87.358,258.617 87.621,258.650 88.068 C 258.680 88.457,258.487 88.655,258.191 88.541 C 257.910 88.433,257.545 88.566,257.379 88.835 C 257.185 89.147,257.243 89.221,257.538 89.038 C 257.792 88.881,258.000 88.943,258.000 89.176 C 258.000 89.409,257.629 89.600,257.176 89.600 C 256.723 89.600,256.464 89.780,256.600 90.000 C 256.736 90.220,256.522 90.414,256.124 90.432 C 255.704 90.450,255.610 90.548,255.900 90.665 C 256.722 90.997,256.466 91.600,255.500 91.606 C 254.772 91.611,254.715 91.686,255.200 92.000 C 255.713 92.331,255.698 92.389,255.100 92.394 C 254.715 92.397,254.421 92.535,254.447 92.700 C 254.617 93.775,254.353 94.946,254.050 94.466 C 253.538 93.659,253.138 94.978,253.554 96.103 C 253.964 97.213,253.717 98.000,252.959 98.000 C 252.419 98.000,252.434 98.777,253.011 100.674 C 253.090 100.935,252.940 101.250,252.678 101.374 C 252.314 101.546,252.320 101.656,252.700 101.833 C 252.975 101.962,253.200 102.772,253.200 103.637 C 253.200 104.713,253.452 105.424,254.000 105.893 C 254.440 106.270,254.797 106.763,254.794 106.989 C 254.791 107.215,254.613 107.130,254.400 106.800 C 254.187 106.470,254.012 106.380,254.012 106.600 C 254.012 107.074,254.785 108.344,254.794 107.884 C 254.797 107.711,255.179 107.922,255.643 108.354 C 256.107 108.787,256.400 109.379,256.294 109.670 C 256.055 110.329,257.521 112.001,258.143 111.778 C 258.394 111.688,259.050 111.967,259.600 112.398 C 260.178 112.852,260.368 113.186,260.051 113.191 C 259.610 113.198,259.599 113.317,259.996 113.796 C 260.268 114.123,260.678 114.275,260.907 114.134 C 261.136 113.992,261.208 114.064,261.066 114.293 C 260.925 114.522,261.063 114.920,261.373 115.178 C 261.837 115.562,261.901 115.482,261.734 114.723 C 261.571 113.986,261.617 113.921,261.959 114.400 C 262.195 114.730,262.393 115.360,262.400 115.800 C 262.409 116.402,262.497 116.466,262.756 116.057 C 262.996 115.679,263.183 115.649,263.374 115.957 C 263.524 116.201,263.536 116.580,263.400 116.800 C 263.264 117.020,263.518 117.200,263.964 117.200 C 264.520 117.200,264.703 117.388,264.545 117.800 C 264.399 118.180,264.550 118.400,264.957 118.400 C 265.311 118.400,265.600 118.591,265.600 118.824 C 265.600 119.057,265.375 119.116,265.100 118.955 C 264.825 118.794,264.949 119.060,265.375 119.545 C 265.801 120.031,266.395 120.334,266.696 120.219 C 267.010 120.098,267.131 120.187,266.982 120.430 C 266.671 120.932,267.906 122.400,268.638 122.400 C 268.921 122.400,269.263 122.578,269.397 122.795 C 269.544 123.033,269.358 123.082,268.934 122.919 C 268.305 122.678,268.292 122.719,268.813 123.286 C 269.136 123.636,269.549 123.896,269.732 123.862 C 269.915 123.828,270.363 124.250,270.727 124.800 C 271.375 125.776,271.371 125.786,270.595 125.207 C 269.806 124.618,269.806 124.620,270.575 125.521 C 271.001 126.020,271.586 126.338,271.875 126.227 C 272.221 126.094,272.400 126.362,272.400 127.013 C 272.400 127.556,272.591 128.000,272.824 128.000 C 273.057 128.000,273.136 128.180,273.000 128.400 C 272.864 128.620,273.033 128.800,273.376 128.800 C 273.731 128.800,274.000 129.141,274.000 129.590 C 274.000 130.063,274.481 130.628,275.200 131.000 C 276.583 131.715,276.853 132.248,275.500 131.591 L 274.600 131.155 275.518 131.956 C 276.022 132.396,276.382 132.813,276.318 132.882 C 276.253 132.952,276.602 133.636,277.093 134.404 C 277.585 135.172,277.990 135.547,277.993 135.238 C 277.999 134.800,278.170 134.830,278.768 135.371 C 279.268 135.824,279.472 136.413,279.354 137.065 C 279.249 137.646,279.334 137.964,279.559 137.826 C 279.771 137.694,280.058 137.770,280.196 137.993 C 280.334 138.217,280.212 138.411,279.924 138.425 C 279.636 138.439,279.818 138.618,280.330 138.823 C 280.920 139.060,281.205 139.452,281.110 139.898 C 281.027 140.284,281.363 140.986,281.855 141.458 C 282.348 141.930,282.642 142.425,282.509 142.558 C 282.376 142.691,282.522 142.803,282.833 142.806 C 283.313 142.811,283.315 142.866,282.846 143.163 C 282.398 143.447,282.461 143.657,283.176 144.257 C 283.662 144.666,284.239 145.360,284.457 145.800 C 284.742 146.375,284.615 146.319,284.003 145.600 L 283.152 144.600 283.832 146.000 C 284.206 146.770,284.712 147.532,284.956 147.694 C 285.200 147.856,285.231 147.991,285.024 147.994 C 284.816 147.997,284.996 148.283,285.424 148.630 C 285.851 148.976,285.973 149.144,285.695 149.003 C 285.366 148.836,285.436 149.230,285.895 150.131 C 286.283 150.892,286.716 151.445,286.858 151.360 C 287.199 151.155,287.699 152.348,287.798 153.600 C 287.949 155.510,288.001 155.647,288.468 155.358 C 288.778 155.166,288.854 155.283,288.692 155.705 C 288.380 156.518,289.227 158.800,289.841 158.800 C 290.097 158.800,290.392 159.245,290.496 159.788 C 290.599 160.331,290.530 160.681,290.342 160.564 C 290.154 160.448,290.000 160.500,290.000 160.680 C 290.000 160.860,290.360 161.232,290.800 161.507 C 291.240 161.782,291.600 162.220,291.600 162.480 C 291.600 162.740,291.344 162.604,291.031 162.176 C 290.512 161.468,290.487 161.522,290.747 162.800 C 290.917 163.630,291.270 164.200,291.616 164.200 C 292.375 164.200,292.631 166.008,291.935 166.449 C 291.524 166.709,291.561 166.789,292.096 166.794 C 292.673 166.799,292.759 167.071,292.595 168.373 C 292.431 169.677,292.530 169.987,293.172 170.191 C 293.686 170.354,293.889 170.700,293.773 171.219 C 293.212 173.748,293.212 173.688,293.784 173.213 C 294.388 172.712,294.449 173.366,293.882 174.272 C 293.720 174.532,293.773 174.860,294.000 175.000 C 294.227 175.140,294.305 175.431,294.172 175.645 C 294.040 175.860,294.149 176.297,294.415 176.618 C 294.794 177.074,294.791 177.200,294.400 177.200 C 294.023 177.200,294.035 177.364,294.451 177.877 C 294.824 178.337,294.840 178.457,294.500 178.253 C 293.827 177.849,293.866 178.620,294.573 179.714 C 294.888 180.201,295.090 181.230,295.022 182.000 C 294.954 182.770,295.147 183.800,295.451 184.288 C 295.894 185.001,295.899 185.136,295.475 184.973 C 295.061 184.814,294.929 185.683,294.864 188.985 C 294.810 191.737,294.928 193.200,295.204 193.200 C 295.502 193.200,295.503 193.435,295.208 193.986 C 294.968 194.434,294.875 195.918,294.993 197.446 C 295.132 199.262,295.038 200.318,294.699 200.737 C 294.300 201.230,294.300 201.293,294.700 201.053 C 294.975 200.888,295.200 200.924,295.200 201.134 C 295.200 201.343,294.939 201.615,294.620 201.737 C 294.028 201.964,293.977 204.593,294.547 205.514 C 294.695 205.754,294.498 206.136,294.108 206.363 C 293.719 206.590,293.580 206.784,293.800 206.794 C 294.020 206.804,293.935 206.980,293.611 207.185 C 293.108 207.503,293.124 207.596,293.723 207.826 C 294.364 208.072,294.369 208.135,293.774 208.569 C 293.417 208.830,293.097 209.529,293.063 210.122 C 293.028 210.714,292.843 211.200,292.651 211.200 C 292.459 211.200,292.508 211.448,292.760 211.751 C 293.245 212.336,292.727 214.400,292.095 214.400 C 291.916 214.400,291.726 214.978,291.672 215.684 C 291.618 216.391,291.426 217.066,291.244 217.184 C 291.062 217.303,290.962 217.714,291.021 218.098 C 291.080 218.483,290.956 218.904,290.745 219.034 C 290.511 219.179,290.547 219.495,290.837 219.845 C 291.223 220.310,291.189 220.371,290.657 220.166 C 289.898 219.875,289.785 220.425,290.463 221.103 C 290.992 221.632,290.180 222.958,289.561 222.576 C 289.369 222.457,289.314 222.954,289.440 223.680 C 289.613 224.683,289.565 224.856,289.240 224.400 C 289.005 224.070,288.789 223.980,288.760 224.200 C 288.594 225.470,288.640 225.829,289.000 226.094 C 289.226 226.260,289.095 226.390,288.700 226.394 C 288.093 226.399,287.792 227.085,287.953 228.100 C 287.979 228.265,287.859 228.400,287.686 228.400 C 287.183 228.400,285.930 230.763,286.201 231.201 C 286.336 231.420,286.212 231.603,285.924 231.606 C 285.543 231.611,285.564 231.718,286.000 232.000 C 286.513 232.331,286.498 232.389,285.900 232.394 C 285.221 232.400,285.026 232.820,285.179 233.940 C 285.220 234.237,285.080 234.373,284.869 234.242 C 284.657 234.112,284.385 234.262,284.264 234.576 C 284.144 234.891,284.221 235.207,284.436 235.279 C 284.652 235.351,284.551 235.767,284.213 236.205 C 283.600 236.998,283.599 236.998,283.822 236.200 C 283.945 235.760,283.594 236.210,283.041 237.200 C 282.488 238.190,282.028 239.315,282.018 239.700 C 282.008 240.085,281.826 240.400,281.613 240.400 C 281.399 240.400,281.340 240.700,281.481 241.066 C 281.630 241.456,281.573 241.630,281.341 241.487 C 281.124 241.353,280.634 241.774,280.251 242.422 C 279.622 243.486,279.617 243.600,280.201 243.600 C 280.557 243.600,280.729 243.792,280.583 244.027 C 280.438 244.262,280.067 244.358,279.760 244.240 C 279.394 244.099,279.200 244.306,279.200 244.836 C 279.200 245.379,279.034 245.548,278.700 245.347 C 278.307 245.110,278.308 245.179,278.705 245.670 C 279.117 246.179,279.098 246.387,278.605 246.796 C 278.115 247.202,277.995 247.193,277.973 246.749 C 277.958 246.447,277.736 246.650,277.480 247.200 C 277.224 247.750,276.786 248.438,276.507 248.729 C 276.228 249.019,276.000 249.561,276.000 249.933 C 276.000 250.304,275.550 251.093,275.000 251.687 C 274.450 252.280,274.000 252.964,274.000 253.206 C 274.000 253.449,273.837 253.546,273.637 253.423 C 273.438 253.300,273.363 253.604,273.472 254.099 C 273.631 254.823,273.585 254.882,273.241 254.400 C 272.885 253.902,272.811 253.953,272.806 254.700 C 272.803 255.197,272.552 255.600,272.247 255.600 C 271.942 255.600,271.599 255.960,271.484 256.401 C 271.355 256.895,271.434 257.103,271.691 256.943 C 271.921 256.802,271.690 257.251,271.179 257.943 C 270.130 259.361,269.767 259.583,270.386 258.426 C 271.204 256.897,270.774 257.119,269.379 258.946 C 268.597 259.970,268.070 260.990,268.208 261.214 C 268.347 261.437,268.249 261.570,267.993 261.510 C 267.736 261.449,267.317 261.760,267.063 262.200 C 266.808 262.640,266.420 263.132,266.200 263.294 C 265.954 263.474,265.998 263.590,266.314 263.594 C 266.704 263.599,266.725 263.793,266.400 264.400 C 266.165 264.840,265.640 265.200,265.235 265.200 C 264.830 265.200,264.251 265.505,263.949 265.877 C 263.576 266.337,263.560 266.457,263.900 266.253 C 264.175 266.088,264.400 266.066,264.400 266.205 C 264.400 266.598,263.317 267.584,263.112 267.379 C 263.011 267.278,262.595 267.564,262.187 268.015 C 261.491 268.783,261.489 268.817,262.162 268.559 C 262.803 268.313,262.823 268.374,262.353 269.126 C 261.978 269.728,261.740 269.830,261.520 269.484 C 261.322 269.173,261.210 269.313,261.206 269.876 C 261.203 270.358,261.022 270.863,260.805 270.997 C 260.573 271.140,260.506 270.943,260.642 270.521 C 260.837 269.918,260.805 269.898,260.444 270.400 C 260.206 270.730,260.009 271.326,260.006 271.724 C 260.003 272.122,259.817 272.334,259.593 272.196 C 259.370 272.058,259.308 271.749,259.455 271.511 C 259.612 271.258,259.538 271.191,259.279 271.351 C 259.035 271.502,258.948 271.919,259.085 272.278 C 259.252 272.712,259.180 272.835,258.873 272.645 C 258.569 272.457,258.492 272.574,258.649 272.984 C 258.824 273.439,258.713 273.541,258.240 273.360 C 257.742 273.169,257.655 273.278,257.865 273.825 C 258.074 274.369,257.987 274.481,257.499 274.293 C 257.136 274.154,256.629 274.331,256.329 274.701 C 255.880 275.255,255.891 275.307,256.400 275.047 C 256.757 274.865,256.720 274.971,256.306 275.310 C 255.925 275.623,255.714 275.981,255.838 276.105 C 256.214 276.480,254.744 278.413,254.294 278.135 C 254.061 277.990,253.995 278.068,254.145 278.311 C 254.292 278.549,254.223 278.862,253.990 279.006 C 253.758 279.150,253.684 279.635,253.827 280.084 C 253.999 280.628,253.938 280.809,253.643 280.626 C 253.241 280.378,253.036 281.146,253.092 282.696 C 253.102 282.968,252.950 283.093,252.755 282.972 C 252.560 282.851,252.400 283.044,252.400 283.400 C 252.400 283.756,252.580 283.936,252.800 283.800 C 253.352 283.459,253.304 284.136,252.737 284.703 C 252.386 285.054,252.410 285.334,252.837 285.860 C 253.202 286.310,253.224 286.448,252.900 286.253 C 252.358 285.928,252.258 286.364,252.643 287.367 C 252.776 287.715,253.136 288.000,253.443 288.000 C 253.749 288.000,254.000 288.180,254.000 288.400 C 254.000 288.620,253.850 288.800,253.667 288.800 C 253.484 288.800,253.379 289.205,253.434 289.700 C 253.488 290.195,253.548 290.735,253.567 290.900 C 253.585 291.065,253.851 291.200,254.157 291.200 C 254.879 291.200,255.301 292.289,254.678 292.543 C 254.414 292.650,254.508 292.751,254.887 292.768 C 255.359 292.790,255.495 293.009,255.319 293.466 C 255.149 293.910,255.218 294.036,255.527 293.845 C 255.817 293.666,255.912 293.764,255.781 294.104 C 255.507 294.819,257.003 296.169,257.637 295.777 C 257.922 295.601,258.020 295.643,257.875 295.879 C 257.738 296.101,257.903 296.624,258.242 297.041 C 258.582 297.458,258.747 297.577,258.609 297.305 C 258.444 296.979,258.570 296.891,258.977 297.046 C 259.317 297.177,259.504 297.433,259.391 297.614 C 259.279 297.796,259.370 298.058,259.593 298.196 C 259.817 298.334,260.000 298.255,260.000 298.020 C 260.000 297.737,260.261 297.756,260.774 298.077 C 261.200 298.343,261.442 298.732,261.312 298.942 C 261.179 299.157,261.289 299.192,261.563 299.023 C 261.839 298.853,262.417 299.043,262.894 299.461 C 263.480 299.974,263.646 300.017,263.439 299.600 C 263.275 299.270,263.431 299.359,263.786 299.798 C 264.341 300.484,264.485 300.512,264.810 299.998 C 265.018 299.669,265.191 299.580,265.195 299.800 C 265.199 300.037,266.752 300.209,268.997 300.221 C 271.311 300.234,272.598 300.103,272.296 299.886 C 271.969 299.652,272.108 299.598,272.701 299.728 C 273.196 299.837,273.508 299.775,273.394 299.590 C 273.280 299.406,273.370 299.142,273.593 299.004 C 273.817 298.866,274.000 298.943,274.000 299.176 C 274.000 299.904,274.798 299.639,274.832 298.900 C 274.850 298.487,274.945 298.404,275.064 298.697 C 275.366 299.444,276.800 298.546,276.800 297.610 C 276.800 296.704,277.434 296.207,277.811 296.817 C 277.983 297.096,278.286 296.992,278.668 296.524 C 278.993 296.126,279.128 296.053,278.968 296.362 C 278.781 296.722,278.836 296.825,279.121 296.649 C 279.365 296.498,279.460 296.099,279.331 295.763 C 279.175 295.359,279.391 295.075,279.971 294.924 C 280.452 294.798,280.766 294.488,280.669 294.234 C 280.467 293.708,281.785 291.918,282.124 292.257 C 282.584 292.717,285.516 289.566,285.321 288.821 C 285.216 288.419,285.326 287.969,285.565 287.822 C 285.804 287.674,286.000 287.765,286.000 288.025 C 286.000 288.379,286.150 288.374,286.596 288.004 C 286.923 287.732,287.110 287.378,287.011 287.218 C 286.912 287.058,287.369 286.530,288.027 286.043 C 288.684 285.557,289.119 284.992,288.993 284.788 C 288.653 284.238,289.537 282.800,290.214 282.800 C 290.536 282.800,290.800 282.519,290.800 282.176 C 290.800 281.833,290.960 281.651,291.155 281.772 C 291.674 282.093,292.520 280.917,292.173 280.356 C 291.990 280.060,292.046 279.981,292.318 280.149 C 292.834 280.468,293.709 279.057,293.286 278.588 C 293.129 278.414,293.180 278.372,293.400 278.494 C 293.620 278.616,294.032 278.465,294.316 278.158 C 294.646 277.801,294.674 277.600,294.393 277.600 C 294.135 277.600,294.247 277.106,294.664 276.400 C 295.435 275.095,296.122 274.774,295.734 275.900 C 295.524 276.508,295.570 276.500,296.080 275.846 C 296.404 275.431,296.607 274.621,296.532 274.046 C 296.458 273.471,296.502 273.223,296.630 273.496 C 296.809 273.876,297.004 273.853,297.458 273.399 C 297.784 273.073,297.940 272.627,297.805 272.408 C 297.662 272.177,297.822 272.110,298.184 272.249 C 298.655 272.430,298.742 272.314,298.537 271.779 C 298.350 271.292,298.411 271.160,298.732 271.358 C 299.031 271.543,299.200 271.351,299.200 270.824 C 299.200 270.352,299.461 270.000,299.810 270.000 C 300.168 270.000,300.519 269.504,300.660 268.800 C 300.808 268.062,301.150 267.598,301.550 267.594 C 302.116 267.589,302.122 267.538,301.600 267.200 C 301.060 266.851,301.310 266.628,302.100 266.753 C 302.265 266.779,302.400 266.440,302.400 266.000 C 302.400 265.560,302.580 265.200,302.800 265.200 C 303.020 265.200,303.200 264.919,303.200 264.576 C 303.200 264.233,303.360 264.051,303.555 264.172 C 303.750 264.293,303.885 264.078,303.855 263.696 C 303.823 263.287,304.034 263.051,304.368 263.123 C 304.817 263.219,304.836 263.125,304.461 262.673 C 304.079 262.213,304.181 261.973,304.980 261.450 C 305.552 261.075,305.882 260.559,305.758 260.235 C 305.631 259.905,305.860 259.571,306.310 259.428 C 307.200 259.146,307.908 257.780,307.809 256.539 C 307.771 256.066,307.933 255.753,308.171 255.844 C 308.408 255.935,308.844 255.621,309.140 255.147 C 309.612 254.392,309.600 254.314,309.045 254.527 C 308.510 254.733,308.486 254.651,308.892 254.001 C 309.247 253.433,309.463 253.358,309.719 253.716 C 309.929 254.010,309.971 253.772,309.827 253.111 C 309.648 252.288,309.725 252.073,310.140 252.232 C 310.530 252.382,310.766 251.971,310.950 250.822 C 311.093 249.930,311.387 249.200,311.605 249.200 C 311.822 249.200,312.000 248.840,312.000 248.400 C 312.000 247.960,312.251 247.600,312.557 247.600 C 313.279 247.600,313.701 246.511,313.078 246.257 C 312.815 246.151,312.960 246.046,313.400 246.025 C 314.015 245.996,314.072 245.907,313.649 245.639 C 313.346 245.447,313.223 245.086,313.376 244.838 C 313.530 244.590,313.847 244.505,314.081 244.650 C 314.361 244.823,314.444 244.482,314.323 243.657 C 314.181 242.692,314.288 242.400,314.782 242.400 C 315.650 242.400,316.592 239.969,315.895 239.527 C 315.447 239.242,315.761 239.040,316.486 239.148 C 316.643 239.171,316.665 238.912,316.534 238.573 C 316.398 238.217,316.658 237.619,317.149 237.162 C 317.952 236.413,318.382 234.917,317.667 235.359 C 317.483 235.472,317.333 235.313,317.333 235.005 C 317.333 234.697,317.438 234.456,317.567 234.470 C 318.381 234.557,318.691 234.292,318.697 233.500 C 318.709 231.849,318.797 231.551,319.200 231.800 C 319.586 232.039,319.761 231.060,319.628 229.400 C 319.574 228.722,319.633 228.692,320.013 229.200 C 320.375 229.682,320.429 229.587,320.289 228.712 C 320.194 228.114,320.270 227.719,320.458 227.836 C 320.815 228.056,320.861 227.844,320.923 225.700 C 320.946 224.920,321.169 224.400,321.480 224.400 C 322.114 224.400,322.128 224.186,321.560 223.125 C 321.281 222.604,321.271 222.397,321.532 222.558 C 321.759 222.698,322.058 222.630,322.196 222.407 C 322.334 222.183,322.257 222.000,322.024 222.000 C 321.791 222.000,321.600 221.730,321.600 221.400 C 321.600 221.070,321.791 220.800,322.024 220.800 C 322.257 220.800,322.319 221.008,322.162 221.262 C 321.979 221.557,322.053 221.615,322.365 221.421 C 322.634 221.255,322.749 220.844,322.620 220.509 C 322.492 220.173,322.595 219.647,322.850 219.340 C 323.105 219.032,323.198 218.665,323.057 218.524 C 322.916 218.382,322.800 218.477,322.800 218.733 C 322.800 218.990,322.620 219.200,322.400 219.200 C 321.676 219.200,321.983 218.459,322.817 218.195 C 323.494 217.980,323.607 217.670,323.478 216.382 C 323.393 215.528,323.456 214.911,323.620 215.012 C 323.783 215.113,324.019 214.926,324.146 214.598 C 324.272 214.269,324.156 213.997,323.887 213.994 C 323.583 213.990,323.550 213.877,323.800 213.694 C 324.274 213.346,324.352 210.800,323.888 210.800 C 323.712 210.800,323.801 210.549,324.084 210.242 C 324.368 209.935,324.737 209.767,324.905 209.869 C 325.363 210.146,325.065 206.649,324.601 206.293 C 324.353 206.102,324.467 205.828,324.900 205.573 C 325.690 205.107,325.875 204.214,325.100 204.606 C 324.825 204.745,324.877 204.621,325.216 204.330 C 325.927 203.718,326.155 202.000,325.526 202.000 C 325.241 202.000,325.233 201.836,325.500 201.500 C 325.719 201.225,325.852 200.055,325.795 198.900 C 325.738 197.745,325.851 196.800,326.046 196.800 C 326.535 196.800,326.494 194.505,326.000 194.200 C 325.780 194.064,325.600 192.444,325.600 190.600 C 325.600 188.756,325.780 187.136,326.000 187.000 C 326.495 186.694,326.534 184.400,326.045 184.400 C 325.849 184.400,325.730 183.005,325.781 181.300 C 325.852 178.875,325.734 178.084,325.236 177.667 C 324.662 177.187,324.668 177.156,325.300 177.355 C 325.685 177.476,326.000 177.465,326.000 177.332 C 326.000 177.198,325.685 176.830,325.300 176.514 C 324.915 176.199,324.825 176.055,325.100 176.194 C 325.768 176.532,325.730 176.171,324.978 175.023 C 324.545 174.361,324.490 173.992,324.798 173.801 C 325.116 173.605,325.108 173.372,324.770 172.964 C 324.504 172.644,324.472 172.400,324.696 172.400 C 325.380 172.400,325.035 170.861,324.200 170.187 C 323.760 169.832,323.626 169.655,323.901 169.795 C 324.460 170.078,324.413 168.979,323.827 168.038 C 323.587 167.654,323.622 167.566,323.938 167.762 C 324.735 168.254,324.457 166.612,323.584 165.675 C 323.136 165.194,322.918 164.800,323.099 164.800 C 323.773 164.800,323.533 163.029,322.701 161.862 C 322.229 161.198,322.070 160.796,322.348 160.968 C 323.055 161.405,322.771 159.934,322.038 159.360 C 321.690 159.088,321.568 158.565,321.719 157.990 C 321.880 157.372,321.734 156.873,321.281 156.500 C 320.850 156.146,320.820 156.053,321.200 156.247 C 321.711 156.508,321.721 156.456,321.266 155.894 C 320.972 155.532,320.836 155.066,320.964 154.859 C 321.092 154.652,320.951 153.899,320.650 153.185 C 320.283 152.310,320.026 152.068,319.862 152.443 C 319.707 152.801,319.633 152.715,319.656 152.200 C 319.764 149.797,319.604 149.224,318.900 149.487 C 318.287 149.717,318.268 149.666,318.749 149.075 C 319.138 148.597,319.160 148.400,318.824 148.400 C 318.563 148.400,318.382 148.085,318.421 147.700 C 318.552 146.414,318.406 146.095,317.589 145.881 C 316.842 145.686,316.656 144.877,317.249 144.400 C 317.626 144.096,315.950 139.984,315.549 140.231 C 315.357 140.350,315.200 139.987,315.200 139.424 C 315.200 138.861,315.065 138.421,314.900 138.447 C 314.154 138.565,313.847 138.358,314.320 138.058 C 314.738 137.793,314.744 137.515,314.351 136.652 C 314.026 135.939,313.762 135.738,313.566 136.054 C 313.387 136.345,313.078 135.885,312.776 134.879 C 312.504 133.970,312.123 133.324,311.931 133.443 C 311.738 133.562,311.606 133.511,311.637 133.330 C 311.864 132.028,311.544 130.847,311.020 131.048 C 310.580 131.216,310.486 131.020,310.628 130.232 C 310.732 129.661,310.678 129.217,310.508 129.245 C 309.713 129.374,309.458 129.151,310.000 128.800 C 310.400 128.542,310.433 128.410,310.100 128.406 C 309.825 128.403,309.597 128.085,309.594 127.700 C 309.589 127.115,309.527 127.096,309.217 127.586 C 308.800 128.245,308.000 126.643,308.000 125.150 C 308.000 124.712,307.839 124.452,307.642 124.574 C 307.445 124.696,307.177 124.517,307.046 124.177 C 306.899 123.792,306.973 123.660,307.244 123.827 C 307.557 124.021,307.559 123.871,307.251 123.295 C 307.015 122.855,306.547 122.389,306.211 122.260 C 305.875 122.131,305.600 121.659,305.600 121.213 C 305.600 120.766,305.465 120.421,305.300 120.447 C 304.510 120.572,304.260 120.349,304.800 120.000 C 305.311 119.670,305.295 119.611,304.690 119.606 C 304.223 119.602,303.898 119.189,303.740 118.400 C 303.608 117.740,303.252 117.200,302.950 117.200 C 302.618 117.200,302.398 116.764,302.394 116.100 C 302.389 115.265,302.298 115.142,302.016 115.588 C 301.537 116.346,301.186 115.979,301.035 114.563 C 300.969 113.945,300.708 113.369,300.455 113.285 C 300.202 113.201,300.116 112.936,300.263 112.698 C 300.437 112.416,300.282 112.360,299.821 112.537 C 299.293 112.739,299.171 112.654,299.343 112.205 C 299.471 111.872,299.390 111.600,299.164 111.600 C 298.938 111.600,298.837 111.463,298.941 111.296 C 299.044 111.128,298.875 110.644,298.565 110.219 C 298.201 109.723,298.000 109.641,298.000 109.990 C 298.000 110.740,297.565 110.240,297.431 109.337 C 297.371 108.931,297.069 108.576,296.761 108.546 C 295.540 108.429,295.432 108.331,296.194 108.034 C 296.927 107.747,296.896 107.675,295.794 107.078 C 295.137 106.723,294.836 106.425,295.124 106.416 C 295.412 106.407,295.534 106.217,295.396 105.993 C 295.258 105.770,294.949 105.708,294.711 105.855 C 294.452 106.015,294.391 105.938,294.561 105.664 C 294.731 105.389,294.433 105.016,293.823 104.737 C 293.260 104.481,292.800 103.975,292.800 103.612 C 292.800 102.815,291.631 101.153,291.613 101.924 C 291.606 102.212,291.417 102.334,291.193 102.196 C 290.970 102.058,290.874 101.804,290.981 101.631 C 291.225 101.235,290.209 99.817,289.632 99.750 C 289.395 99.723,288.990 99.678,288.733 99.650 C 288.477 99.623,288.386 99.481,288.531 99.336 C 288.676 99.191,288.436 98.820,287.997 98.513 C 287.559 98.206,287.200 97.627,287.200 97.226 C 287.200 96.826,286.930 96.274,286.600 96.000 C 285.877 95.400,285.792 96.030,286.500 96.744 C 286.901 97.148,286.861 97.195,286.300 96.981 C 285.672 96.742,285.552 96.529,285.621 95.774 C 285.632 95.649,285.182 95.186,284.621 94.745 C 284.059 94.303,283.600 93.666,283.600 93.328 C 283.600 92.949,283.372 92.802,283.005 92.943 C 282.669 93.072,282.451 92.968,282.505 92.704 C 282.557 92.447,282.390 92.228,282.133 92.218 C 281.496 92.193,280.943 91.600,281.557 91.600 C 281.827 91.600,281.934 91.417,281.796 91.193 C 281.658 90.970,281.377 90.891,281.172 91.017 C 280.968 91.144,280.800 90.994,280.800 90.686 C 280.800 90.377,280.395 89.781,279.900 89.362 C 279.001 88.601,279.001 88.601,279.700 89.431 C 280.701 90.620,280.564 90.926,279.380 90.150 C 278.792 89.765,278.451 89.244,278.575 88.920 C 278.694 88.611,278.639 88.452,278.454 88.566 C 278.269 88.681,277.776 88.497,277.359 88.158 C 276.942 87.818,276.825 87.655,277.100 87.794 C 277.375 87.933,277.600 87.857,277.600 87.624 C 277.600 87.391,277.249 87.200,276.820 87.200 C 276.391 87.200,275.896 86.956,275.720 86.658 C 275.259 85.879,273.659 85.116,273.147 85.433 C 272.907 85.581,272.581 85.493,272.423 85.237 C 272.265 84.981,271.447 84.660,270.605 84.523 C 269.431 84.333,269.148 84.392,269.388 84.780 C 269.615 85.148,269.481 85.216,268.896 85.030 C 267.031 84.438,265.173 84.404,264.961 84.957 M326.134 190.400 C 326.134 192.050,326.205 192.725,326.291 191.900 C 326.378 191.075,326.378 189.725,326.291 188.900 C 326.205 188.075,326.134 188.750,326.134 190.400 M211.775 234.900 L 210.600 236.200 211.900 235.025 C 213.112 233.930,213.384 233.600,213.075 233.600 C 213.006 233.600,212.421 234.185,211.775 234.900 " stroke="none" fill="#000000" fill-rule="evenodd"></path><path id="path1" d="M100.200 75.644 C 88.473 76.448,77.191 80.518,66.359 87.852 C 58.069 93.464,48.231 102.973,43.200 110.236 C 36.595 119.771,33.085 125.851,29.421 134.106 C 27.980 137.355,26.800 140.192,26.800 140.412 C 26.800 140.631,26.623 141.123,26.408 141.505 C 25.998 142.231,23.379 149.977,22.725 152.400 C 22.367 153.726,22.181 154.457,21.178 158.500 C 17.006 175.314,15.802 196.910,17.974 216.000 C 18.454 220.215,19.500 226.538,20.357 230.400 C 20.726 232.061,20.927 232.895,21.973 237.100 C 22.179 237.925,22.554 239.320,22.806 240.200 C 23.059 241.080,23.362 242.297,23.479 242.905 C 23.596 243.513,23.851 244.108,24.046 244.229 C 24.241 244.349,24.400 244.773,24.400 245.170 C 24.400 245.568,24.743 246.772,25.163 247.847 C 25.583 248.921,26.513 251.330,27.231 253.200 C 30.985 262.982,36.552 273.038,43.731 283.007 C 52.222 294.798,68.505 307.887,79.800 312.002 C 80.240 312.162,81.050 312.488,81.600 312.726 C 84.940 314.174,89.877 315.502,95.600 316.492 C 99.079 317.094,113.866 317.070,117.400 316.456 C 118.940 316.189,120.876 315.868,121.703 315.743 C 122.529 315.618,123.305 315.355,123.426 315.158 C 123.548 314.961,124.089 314.800,124.629 314.800 C 125.169 314.800,125.923 314.642,126.305 314.449 C 126.687 314.256,127.720 313.884,128.600 313.623 C 130.222 313.140,130.547 313.017,133.400 311.798 C 154.545 302.761,174.442 281.135,183.998 256.800 C 184.474 255.590,185.099 254.060,185.387 253.400 C 186.590 250.652,188.460 245.344,189.263 242.400 C 189.473 241.630,189.815 240.415,190.023 239.700 C 191.048 236.166,191.288 235.271,191.630 233.700 C 191.834 232.765,192.190 231.145,192.421 230.100 C 193.255 226.339,194.133 220.973,194.860 215.200 C 195.417 210.770,195.417 181.630,194.860 177.200 C 194.111 171.252,193.733 168.965,192.412 162.400 C 192.213 161.410,191.867 159.880,191.643 159.000 C 191.420 158.120,191.060 156.680,190.845 155.800 C 190.629 154.920,190.246 153.480,189.994 152.600 C 189.741 151.720,189.438 150.503,189.321 149.895 C 189.204 149.287,188.949 148.692,188.754 148.571 C 188.559 148.451,188.400 148.027,188.400 147.630 C 188.400 147.232,188.056 146.028,187.636 144.953 C 187.216 143.879,186.101 141.020,185.158 138.600 C 178.973 122.732,170.315 109.485,158.743 98.182 C 147.722 87.417,137.069 81.043,124.400 77.631 C 123.410 77.364,122.047 76.978,121.372 76.773 C 120.696 76.568,119.559 76.400,118.845 76.400 C 118.131 76.400,117.244 76.245,116.874 76.055 C 115.894 75.553,105.324 75.292,100.200 75.644 M267.233 84.544 C 267.705 84.950,269.643 85.193,269.410 84.816 C 269.268 84.587,268.683 84.400,268.110 84.400 C 267.536 84.400,267.142 84.465,267.233 84.544 M277.359 88.202 C 277.776 88.517,278.269 88.681,278.454 88.566 C 278.639 88.452,278.694 88.611,278.575 88.920 C 278.451 89.244,278.792 89.765,279.380 90.150 C 279.941 90.518,280.394 90.679,280.386 90.509 C 280.351 89.776,278.475 87.970,277.579 87.807 C 276.651 87.640,276.639 87.660,277.359 88.202 M256.559 89.267 C 256.445 89.450,256.723 89.600,257.176 89.600 C 257.629 89.600,258.000 89.450,258.000 89.267 C 258.000 89.083,257.722 88.933,257.382 88.933 C 257.043 88.933,256.672 89.083,256.559 89.267 M116.200 89.911 C 117.300 90.143,118.830 90.516,119.600 90.740 C 120.370 90.963,121.450 91.263,122.000 91.406 C 122.550 91.550,123.360 91.814,123.800 91.994 C 124.240 92.175,125.680 92.735,127.000 93.240 C 149.707 101.928,170.522 129.070,178.045 159.800 C 178.260 160.680,178.620 162.120,178.843 163.000 C 181.203 172.282,182.506 184.093,182.506 196.200 C 182.506 210.608,180.992 222.005,177.270 235.600 C 169.140 265.298,149.289 290.352,126.800 299.296 C 126.250 299.514,125.487 299.852,125.105 300.047 C 124.723 300.241,124.136 300.400,123.800 300.400 C 123.464 300.400,122.877 300.558,122.495 300.751 C 121.273 301.368,118.974 302.000,117.952 302.000 C 117.406 302.000,116.789 302.160,116.580 302.357 C 115.534 303.337,101.829 303.684,97.000 302.852 C 95.460 302.587,93.524 302.268,92.697 302.143 C 91.871 302.018,91.095 301.755,90.974 301.558 C 90.852 301.361,90.234 301.200,89.600 301.200 C 88.966 301.200,88.320 300.994,88.165 300.743 C 87.955 300.404,89.270 300.350,93.241 300.535 C 100.563 300.875,107.205 300.298,113.200 298.800 C 114.190 298.553,115.497 298.251,116.105 298.129 C 116.713 298.007,117.308 297.749,117.429 297.554 C 117.549 297.359,117.999 297.200,118.429 297.200 C 118.859 297.200,119.523 297.035,119.905 296.834 C 120.287 296.632,121.320 296.167,122.200 295.801 C 144.748 286.407,164.881 261.842,172.441 234.500 C 172.638 233.785,172.992 232.525,173.227 231.700 C 176.483 220.248,177.701 210.590,177.701 196.200 C 177.701 181.865,176.444 171.869,173.249 160.800 C 173.027 160.030,172.673 158.770,172.463 158.000 C 164.996 130.631,143.705 104.764,121.800 96.447 C 120.480 95.946,119.087 95.370,118.705 95.168 C 118.323 94.966,117.659 94.800,117.229 94.800 C 116.799 94.800,116.348 94.640,116.227 94.444 C 116.106 94.249,115.421 93.992,114.704 93.873 C 113.987 93.755,112.590 93.450,111.600 93.196 C 106.660 91.929,92.882 91.326,88.439 92.182 C 87.244 92.413,86.760 92.388,86.934 92.107 C 87.075 91.879,87.687 91.596,88.295 91.479 C 88.903 91.362,90.120 91.056,91.000 90.800 C 91.880 90.543,93.452 90.201,94.494 90.039 C 95.536 89.877,96.518 89.616,96.675 89.458 C 97.102 89.031,113.881 89.420,116.200 89.911 M255.200 91.200 C 255.200 91.420,255.470 91.600,255.800 91.600 C 256.130 91.600,256.400 91.420,256.400 91.200 C 256.400 90.980,256.130 90.800,255.800 90.800 C 255.470 90.800,255.200 90.980,255.200 91.200 M281.600 91.608 C 281.016 91.978,281.059 92.026,282.100 92.168 C 282.375 92.206,282.557 92.447,282.505 92.704 C 282.451 92.968,282.669 93.072,283.005 92.943 C 283.372 92.802,283.600 92.949,283.600 93.328 C 283.600 93.666,284.059 94.303,284.621 94.745 C 285.182 95.186,285.632 95.649,285.621 95.774 C 285.552 96.529,285.672 96.742,286.300 96.981 C 286.861 97.195,286.901 97.148,286.500 96.744 C 286.225 96.467,286.000 95.954,286.000 95.605 C 286.000 94.525,282.301 91.165,281.600 91.608 M254.000 93.800 C 254.000 94.350,254.069 94.800,254.153 94.800 C 254.238 94.800,254.393 94.350,254.498 93.800 C 254.603 93.250,254.534 92.800,254.345 92.800 C 254.155 92.800,254.000 93.250,254.000 93.800 M253.228 96.100 C 253.213 96.485,253.215 96.915,253.234 97.055 C 253.253 97.196,253.028 97.463,252.734 97.649 C 252.317 97.914,252.344 97.989,252.857 97.994 C 253.682 98.002,253.985 97.242,253.573 96.200 C 253.304 95.522,253.252 95.507,253.228 96.100 M287.200 97.354 C 287.200 97.684,287.559 98.206,287.997 98.513 C 288.436 98.820,288.698 99.168,288.580 99.286 C 288.462 99.405,288.663 99.615,289.027 99.755 C 289.517 99.943,289.625 99.843,289.445 99.372 C 289.310 99.021,289.200 98.659,289.200 98.567 C 289.200 98.475,288.930 98.400,288.600 98.400 C 288.270 98.400,288.000 98.141,288.000 97.824 C 288.000 97.507,287.820 97.136,287.600 97.000 C 287.380 96.864,287.200 97.023,287.200 97.354 M252.667 98.667 C 252.275 99.058,252.341 101.200,252.745 101.200 C 252.934 101.200,252.999 100.731,252.890 100.157 C 252.767 99.517,252.905 98.979,253.245 98.764 C 253.550 98.570,253.605 98.409,253.367 98.406 C 253.128 98.403,252.813 98.520,252.667 98.667 M292.800 103.729 C 292.800 104.051,293.070 104.418,293.400 104.545 C 293.730 104.671,294.000 104.678,294.000 104.559 C 294.000 104.440,293.730 104.073,293.400 103.743 C 292.880 103.222,292.800 103.221,292.800 103.729 M254.800 107.975 C 254.800 108.177,255.061 108.604,255.381 108.924 C 255.700 109.243,255.850 109.616,255.714 109.752 C 255.578 109.889,255.677 110.000,255.933 110.000 C 256.666 110.000,256.480 109.046,255.600 108.293 C 255.160 107.916,254.800 107.773,254.800 107.975 M257.938 111.885 C 258.562 113.051,259.363 113.593,259.937 113.239 C 260.315 113.005,260.207 112.770,259.524 112.333 C 257.538 111.063,257.492 111.050,257.938 111.885 M300.571 114.229 C 300.917 114.574,301.200 115.114,301.200 115.429 C 301.200 115.743,301.380 116.000,301.600 116.000 C 301.820 116.000,302.000 115.743,302.000 115.429 C 302.000 114.773,300.937 113.600,300.343 113.600 C 300.123 113.600,300.226 113.883,300.571 114.229 M261.612 114.400 C 261.612 114.730,261.787 115.270,262.000 115.600 C 262.345 116.133,262.388 116.133,262.388 115.600 C 262.388 115.270,262.213 114.730,262.000 114.400 C 261.655 113.867,261.612 113.867,261.612 114.400 M262.800 116.343 C 262.800 117.064,265.976 120.157,266.341 119.792 C 266.587 119.547,265.306 118.400,264.786 118.400 C 264.527 118.400,264.418 118.130,264.545 117.800 C 264.700 117.394,264.524 117.200,264.000 117.200 C 263.500 117.200,263.301 117.001,263.440 116.640 C 263.558 116.333,263.462 115.962,263.227 115.817 C 262.979 115.664,262.800 115.884,262.800 116.343 M303.606 118.011 C 303.615 118.821,304.298 119.835,304.619 119.514 C 304.763 119.370,304.593 118.840,304.241 118.337 C 303.828 117.747,303.602 117.631,303.606 118.011 M84.400 124.372 C 85.610 124.626,87.187 124.936,87.904 125.061 C 88.621 125.186,89.306 125.449,89.427 125.644 C 89.548 125.840,89.931 126.000,90.277 126.000 C 91.485 126.000,98.223 129.499,101.400 131.776 C 114.978 141.508,125.121 159.523,128.440 179.800 C 130.607 193.033,130.046 207.257,126.848 220.200 C 123.150 235.173,114.751 249.762,105.261 257.702 C 98.559 263.309,94.534 265.396,85.400 268.000 C 84.740 268.188,82.220 268.434,79.800 268.545 C 75.363 268.749,75.394 268.726,81.000 267.650 C 97.642 264.458,112.510 250.850,120.963 231.076 C 122.417 227.676,122.846 226.489,123.633 223.700 C 123.835 222.985,124.192 221.725,124.427 220.900 C 126.625 213.169,127.324 207.315,127.302 196.800 C 127.281 186.309,126.544 180.152,124.408 172.600 C 124.159 171.720,123.803 170.460,123.618 169.800 C 116.459 144.326,95.871 126.089,73.414 125.329 C 68.619 125.166,66.712 124.433,71.000 124.400 C 71.880 124.393,72.870 124.207,73.200 123.987 C 73.949 123.486,81.398 123.742,84.400 124.372 M269.431 123.950 C 269.308 124.149,269.668 124.615,270.233 124.985 C 271.229 125.638,271.246 125.634,270.827 124.851 C 270.287 123.841,269.723 123.477,269.431 123.950 M308.032 125.274 C 307.971 126.572,308.809 128.233,309.203 127.596 C 309.431 127.226,309.370 126.799,309.032 126.409 C 308.742 126.074,308.405 125.530,308.284 125.200 C 308.104 124.711,308.057 124.725,308.032 125.274 M271.778 126.435 C 271.631 126.674,271.710 127.070,271.955 127.315 C 272.282 127.642,272.400 127.526,272.400 126.880 C 272.400 125.914,272.192 125.765,271.778 126.435 M311.701 132.471 C 311.739 133.060,311.885 133.471,312.025 133.384 C 312.166 133.297,312.520 133.985,312.811 134.913 C 313.126 135.912,313.404 136.327,313.494 135.931 C 313.578 135.563,313.194 134.393,312.640 133.331 C 311.808 131.735,311.645 131.586,311.701 132.471 M219.093 134.640 C 218.983 134.751,218.467 134.891,217.946 134.951 C 217.426 135.012,216.640 135.210,216.200 135.390 C 215.760 135.570,214.860 135.942,214.200 136.216 C 209.405 138.207,206.029 144.047,206.091 150.242 C 206.128 154.008,206.603 156.400,207.311 156.400 C 207.496 156.400,207.555 156.550,207.441 156.733 C 207.080 157.318,209.244 160.096,212.875 163.706 C 214.814 165.635,216.400 167.307,216.400 167.423 C 216.400 167.663,216.992 168.403,218.318 169.819 C 218.823 170.359,219.104 170.800,218.942 170.800 C 218.780 170.800,218.996 171.064,219.424 171.387 C 219.851 171.710,220.066 171.980,219.903 171.987 C 219.739 171.994,220.009 172.464,220.503 173.032 C 220.996 173.600,221.340 174.165,221.266 174.287 C 221.192 174.410,221.282 174.621,221.466 174.755 C 221.650 174.890,222.143 175.675,222.563 176.500 C 222.983 177.325,223.478 178.000,223.663 178.000 C 223.848 178.000,224.000 178.247,224.000 178.549 C 224.000 178.851,224.344 179.886,224.764 180.849 C 225.184 181.812,225.841 183.320,226.225 184.200 C 226.609 185.080,226.894 185.940,226.858 186.112 C 226.822 186.284,227.030 186.914,227.322 187.512 C 227.613 188.110,227.828 188.870,227.799 189.200 C 227.771 189.530,227.887 190.089,228.057 190.443 C 228.228 190.797,228.405 191.787,228.452 192.643 C 228.498 193.499,228.659 194.380,228.809 194.600 C 229.187 195.155,229.177 202.909,228.797 203.400 C 228.627 203.620,228.524 204.250,228.567 204.800 C 228.611 205.350,228.479 206.250,228.274 206.800 C 228.070 207.350,227.869 208.160,227.829 208.600 C 227.733 209.649,226.790 212.481,226.351 213.037 C 226.162 213.277,226.097 213.564,226.207 213.674 C 226.629 214.096,220.513 224.924,219.418 225.694 C 219.188 225.856,219.135 225.991,219.300 225.994 C 219.465 225.997,219.231 226.405,218.781 226.900 C 217.134 228.711,216.514 229.443,214.805 231.600 C 213.846 232.810,211.997 234.850,210.697 236.132 C 209.396 237.415,208.422 238.555,208.532 238.666 C 208.643 238.776,208.382 239.218,207.952 239.648 C 207.522 240.078,207.278 240.603,207.409 240.815 C 207.540 241.027,207.457 241.200,207.224 241.200 C 206.991 241.200,206.800 241.549,206.800 241.976 C 206.800 242.403,206.647 242.847,206.460 242.963 C 205.992 243.252,205.958 251.527,206.424 251.815 C 206.631 251.943,206.800 252.451,206.800 252.945 C 206.800 253.770,208.979 257.223,209.696 257.534 C 209.866 257.608,209.911 257.820,209.797 258.005 C 209.592 258.336,212.810 260.882,213.200 260.698 C 213.310 260.646,213.984 261.019,214.699 261.528 C 215.955 262.423,216.572 262.624,219.038 262.944 C 219.677 263.027,220.518 263.229,220.907 263.393 C 221.296 263.557,222.106 263.493,222.707 263.250 C 223.308 263.007,224.385 262.768,225.100 262.719 C 225.815 262.670,226.400 262.458,226.400 262.248 C 226.400 262.038,226.513 261.980,226.651 262.117 C 226.945 262.412,229.313 261.480,230.190 260.724 C 232.474 258.756,236.400 254.912,236.400 254.644 C 236.400 254.466,237.239 253.529,238.264 252.560 C 239.289 251.592,240.022 250.800,239.894 250.800 C 239.766 250.800,240.169 250.241,240.788 249.558 C 242.720 247.428,243.138 246.880,243.789 245.621 C 244.136 244.950,244.557 244.400,244.724 244.400 C 244.891 244.400,245.368 243.815,245.784 243.100 C 246.199 242.385,246.659 241.710,246.805 241.600 C 246.950 241.490,247.589 240.500,248.223 239.400 C 248.858 238.300,249.787 236.790,250.289 236.044 C 250.790 235.298,251.200 234.368,251.200 233.978 C 251.200 233.587,251.335 233.207,251.500 233.133 C 251.909 232.952,253.825 229.100,253.700 228.711 C 253.645 228.540,253.791 228.400,254.024 228.400 C 254.257 228.400,254.336 228.220,254.200 228.000 C 254.064 227.780,254.115 227.600,254.312 227.600 C 254.685 227.600,255.873 224.430,255.699 223.900 C 255.644 223.735,255.799 223.600,256.043 223.600 C 256.286 223.600,256.390 223.352,256.274 223.049 C 256.158 222.746,256.227 222.333,256.429 222.131 C 256.874 221.686,258.363 216.410,258.667 214.200 C 258.788 213.320,259.015 212.420,259.173 212.200 C 259.330 211.980,259.508 210.992,259.567 210.004 C 259.626 209.015,259.818 207.935,259.992 207.604 C 260.408 206.811,260.408 191.674,259.992 190.580 C 259.815 190.115,259.619 188.939,259.555 187.967 C 259.491 186.995,259.313 186.110,259.159 186.000 C 259.004 185.890,258.828 185.080,258.766 184.200 C 258.705 183.320,258.525 182.330,258.367 182.000 C 258.209 181.670,257.987 180.860,257.875 180.200 C 257.635 178.795,256.727 176.111,255.168 172.200 C 254.553 170.660,253.937 168.995,253.799 168.500 C 253.660 168.005,253.348 167.600,253.106 167.600 C 252.865 167.600,252.770 167.496,252.897 167.370 C 253.142 167.125,250.791 162.150,249.617 160.429 C 249.231 159.863,248.304 158.352,247.557 157.070 C 246.811 155.789,245.929 154.439,245.597 154.070 C 245.265 153.702,244.649 152.865,244.229 152.210 C 243.319 150.795,242.891 150.241,241.718 148.962 C 241.233 148.433,240.963 147.997,241.118 147.994 C 241.273 147.991,240.635 147.299,239.700 146.455 C 238.765 145.612,238.000 144.802,238.000 144.655 C 238.000 144.228,231.432 137.832,231.089 137.924 C 230.918 137.970,230.673 137.736,230.546 137.404 C 230.419 137.072,230.086 136.800,229.806 136.800 C 229.527 136.800,229.070 136.526,228.792 136.190 C 228.514 135.855,228.193 135.673,228.080 135.787 C 227.966 135.900,227.650 135.808,227.378 135.581 C 226.505 134.857,219.655 134.079,219.093 134.640 M278.000 135.538 C 278.000 136.012,278.180 136.400,278.400 136.400 C 278.620 136.400,278.800 136.700,278.800 137.067 C 278.800 137.433,278.925 137.608,279.078 137.455 C 279.635 136.898,279.504 136.037,278.761 135.364 C 278.035 134.708,278.000 134.716,278.000 135.538 M18.113 141.100 C 11.715 148.388,5.860 159.705,3.574 169.200 C 3.388 169.970,3.037 171.410,2.793 172.400 C 2.168 174.940,1.623 177.750,1.127 181.000 C 0.566 184.677,0.565 208.228,1.126 211.600 C 1.851 215.954,2.883 220.893,3.592 223.400 C 3.841 224.280,4.197 225.540,4.382 226.200 C 8.077 239.348,20.405 257.550,22.915 253.564 C 23.331 252.902,22.147 248.648,19.975 243.000 C 19.805 242.560,19.550 241.750,19.406 241.200 C 19.263 240.650,18.966 239.570,18.746 238.800 C 18.527 238.030,18.179 236.725,17.973 235.900 C 17.768 235.075,17.409 233.635,17.175 232.700 C 16.073 228.291,14.709 220.319,13.941 213.800 C 13.380 209.029,13.373 183.621,13.931 178.800 C 14.596 173.068,15.471 167.593,16.379 163.500 C 17.404 158.875,17.578 158.110,17.952 156.600 C 18.718 153.499,19.131 152.140,21.204 145.915 C 23.444 139.189,23.491 138.400,21.654 138.400 C 20.708 138.400,20.025 138.921,18.113 141.100 M280.000 139.118 C 280.000 139.329,280.291 139.743,280.646 140.038 C 281.205 140.502,281.273 140.473,281.146 139.820 C 280.995 139.043,280.000 138.433,280.000 139.118 M281.200 141.111 C 281.200 141.708,282.449 143.200,282.923 143.168 C 283.266 143.146,283.259 143.080,282.898 142.934 C 282.621 142.823,282.458 142.612,282.534 142.466 C 282.611 142.320,282.342 141.885,281.937 141.500 C 281.531 141.115,281.200 140.940,281.200 141.111 M316.970 145.078 C 317.025 145.451,317.284 145.798,317.545 145.848 C 317.806 145.899,317.846 145.852,317.632 145.744 C 317.419 145.636,317.344 145.290,317.465 144.974 C 317.586 144.658,317.502 144.400,317.278 144.400 C 317.054 144.400,316.916 144.705,316.970 145.078 M319.688 151.661 C 319.659 152.738,319.729 152.863,320.046 152.300 C 320.283 151.878,320.298 151.346,320.082 150.961 C 319.812 150.479,319.715 150.652,319.688 151.661 M286.632 151.549 C 286.478 151.797,286.543 152.000,286.776 152.000 C 287.009 152.000,287.200 152.349,287.200 152.776 C 287.200 153.203,287.349 153.645,287.532 153.758 C 287.985 154.038,287.854 152.771,287.334 151.849 C 287.052 151.348,286.818 151.248,286.632 151.549 M320.962 155.579 C 321.023 156.117,321.327 156.626,321.637 156.709 C 322.097 156.833,322.102 156.792,321.666 156.486 C 321.372 156.279,321.161 155.991,321.196 155.845 C 321.231 155.699,321.168 155.360,321.055 155.090 C 320.943 154.821,320.901 155.040,320.962 155.579 M321.628 158.276 C 321.613 158.758,321.780 159.264,322.000 159.400 C 322.473 159.692,322.473 159.301,322.000 158.200 C 321.669 157.429,321.655 157.431,321.628 158.276 M289.502 159.066 C 289.779 159.177,289.916 159.413,289.807 159.589 C 289.698 159.765,289.852 160.111,290.150 160.358 C 290.585 160.720,290.653 160.612,290.499 159.803 C 290.383 159.200,290.046 158.813,289.653 158.832 C 289.235 158.852,289.181 158.936,289.502 159.066 M290.302 161.466 C 290.579 161.577,290.686 161.861,290.541 162.096 C 290.384 162.349,290.465 162.407,290.738 162.238 C 290.992 162.081,291.200 162.173,291.200 162.443 C 291.200 162.713,291.316 162.818,291.457 162.676 C 291.793 162.340,290.834 161.191,290.251 161.232 C 289.970 161.251,289.989 161.340,290.302 161.466 M291.366 164.455 C 291.174 164.766,291.251 164.816,291.596 164.602 C 291.988 164.360,292.066 164.542,291.913 165.341 C 291.802 165.923,291.866 166.400,292.055 166.400 C 292.520 166.400,292.496 164.507,292.028 164.217 C 291.823 164.091,291.525 164.198,291.366 164.455 M292.734 170.351 C 293.028 170.537,293.253 170.804,293.234 170.945 C 293.031 172.464,293.543 172.836,293.773 171.337 C 293.886 170.603,293.362 170.012,292.600 170.012 C 292.380 170.012,292.440 170.165,292.734 170.351 M293.383 173.567 C 293.494 174.320,294.116 174.255,294.230 173.478 C 294.274 173.178,294.080 172.933,293.800 172.933 C 293.520 172.933,293.332 173.218,293.383 173.567 M325.713 183.300 C 325.747 183.905,325.915 184.400,326.087 184.400 C 326.471 184.400,326.448 184.042,325.998 183.000 C 325.700 182.310,325.661 182.351,325.713 183.300 M325.867 187.067 C 325.499 187.435,325.529 193.909,325.900 194.138 C 326.065 194.241,326.200 192.631,326.200 190.563 C 326.200 188.494,326.185 186.801,326.167 186.800 C 326.148 186.800,326.013 186.920,325.867 187.067 M324.084 210.242 C 323.801 210.549,323.739 210.800,323.947 210.800 C 324.155 210.800,324.250 211.205,324.158 211.700 C 324.066 212.195,324.107 212.330,324.250 212.000 C 324.392 211.670,324.664 211.096,324.855 210.724 C 325.302 209.855,324.757 209.514,324.084 210.242 M292.576 211.918 C 292.737 212.202,292.651 212.697,292.385 213.018 C 292.120 213.338,292.059 213.603,292.251 213.606 C 292.443 213.609,292.330 213.787,292.000 214.000 C 291.585 214.269,291.557 214.390,291.910 214.394 C 292.675 214.403,293.346 212.376,292.756 211.835 C 292.407 211.514,292.360 211.536,292.576 211.918 M322.412 218.384 C 322.088 218.589,321.944 218.878,322.093 219.026 C 322.241 219.174,322.653 219.004,323.010 218.648 C 323.713 217.944,323.357 217.787,322.412 218.384 M289.953 221.020 C 289.927 221.229,289.927 221.535,289.953 221.700 C 289.979 221.865,289.809 222.000,289.576 222.000 C 289.343 222.000,289.275 222.197,289.424 222.438 C 289.608 222.737,289.898 222.674,290.330 222.241 C 290.827 221.745,290.860 221.500,290.483 221.123 C 290.217 220.857,289.979 220.811,289.953 221.020 M321.600 221.400 C 321.600 221.767,321.793 222.002,322.030 221.923 C 322.267 221.845,322.460 221.609,322.460 221.400 C 322.460 221.191,322.267 220.956,322.030 220.877 C 321.793 220.798,321.600 221.033,321.600 221.400 M287.800 226.500 C 286.527 229.647,286.573 229.442,287.286 228.787 C 287.636 228.464,287.919 228.110,287.914 228.000 C 287.865 226.911,288.113 226.395,288.700 226.368 C 289.085 226.351,289.185 226.249,288.922 226.143 C 288.660 226.036,288.544 225.690,288.665 225.374 C 289.215 223.943,288.411 224.988,287.800 226.500 M316.260 238.400 C 315.732 239.458,315.732 239.600,316.254 239.600 C 316.580 239.600,316.736 239.420,316.600 239.200 C 316.464 238.980,316.505 238.800,316.691 238.800 C 316.877 238.800,317.057 238.440,317.090 238.000 C 317.173 236.894,316.960 236.997,316.260 238.400 M314.302 243.400 C 314.407 243.950,314.541 244.400,314.600 244.400 C 314.659 244.400,314.793 243.950,314.898 243.400 C 315.017 242.774,314.906 242.400,314.600 242.400 C 314.294 242.400,314.183 242.774,314.302 243.400 M279.520 244.080 C 279.893 244.453,280.107 244.453,280.480 244.080 C 280.853 243.707,280.747 243.600,280.000 243.600 C 279.253 243.600,279.147 243.707,279.520 244.080 M278.500 245.483 C 277.859 246.864,277.863 247.412,278.511 246.874 C 278.926 246.529,279.432 244.392,279.096 244.403 C 279.043 244.405,278.775 244.891,278.500 245.483 M313.388 244.820 C 313.007 245.435,313.528 245.832,314.042 245.318 C 314.329 245.031,314.336 244.807,314.062 244.639 C 313.839 244.500,313.535 244.582,313.388 244.820 M312.000 248.367 C 312.000 248.788,311.833 249.193,311.630 249.267 C 311.426 249.340,311.144 249.940,311.004 250.600 C 310.796 251.583,310.830 251.673,311.197 251.096 C 312.085 249.699,312.810 247.600,312.405 247.600 C 312.182 247.600,312.000 247.945,312.000 248.367 M274.896 251.016 C 274.399 251.777,274.129 252.394,274.296 252.387 C 274.750 252.369,276.077 250.430,275.929 250.003 C 275.858 249.799,275.393 250.255,274.896 251.016 M270.699 257.584 C 270.350 258.473,270.106 259.200,270.157 259.200 C 270.588 259.200,271.862 256.823,271.631 256.450 C 271.443 256.146,271.100 256.565,270.699 257.584 M304.739 261.162 C 305.159 261.422,305.137 261.539,304.630 261.733 C 304.279 261.868,304.026 262.118,304.066 262.289 C 304.165 262.707,303.107 264.935,302.659 265.254 C 302.463 265.393,302.375 265.725,302.464 265.991 C 302.552 266.257,302.880 265.963,303.192 265.337 C 303.504 264.712,304.141 263.660,304.608 263.000 C 305.966 261.080,305.991 260.970,305.077 260.901 C 304.479 260.856,304.374 260.937,304.739 261.162 M265.280 264.080 C 264.631 264.729,264.675 265.200,265.386 265.200 C 265.708 265.200,266.165 264.840,266.400 264.400 C 266.895 263.475,266.109 263.251,265.280 264.080 M263.488 266.455 C 263.100 266.672,262.888 267.019,263.017 267.228 C 263.149 267.441,263.522 267.335,263.873 266.984 C 264.643 266.214,264.433 265.926,263.488 266.455 M261.500 268.832 C 261.115 269.056,260.800 269.591,260.800 270.020 C 260.800 270.449,260.665 270.763,260.500 270.718 C 260.335 270.672,259.525 271.245,258.700 271.991 C 257.234 273.317,256.758 274.400,257.643 274.400 C 257.886 274.400,257.974 274.110,257.838 273.755 C 257.664 273.301,257.764 273.177,258.175 273.335 C 258.532 273.472,258.856 273.253,259.008 272.774 C 259.145 272.342,259.425 272.092,259.629 272.218 C 259.833 272.344,260.000 272.077,260.000 271.624 C 260.000 271.171,260.221 270.845,260.491 270.900 C 260.760 270.955,261.047 270.566,261.127 270.035 C 261.212 269.474,261.389 269.258,261.550 269.519 C 261.734 269.816,261.993 269.702,262.317 269.184 C 262.855 268.323,262.578 268.204,261.500 268.832 M296.406 273.900 C 296.403 274.395,296.561 274.800,296.757 274.800 C 297.184 274.800,297.708 273.575,297.409 273.276 C 297.294 273.161,297.197 273.322,297.194 273.633 C 297.189 274.100,297.119 274.094,296.800 273.600 C 296.486 273.115,296.411 273.172,296.406 273.900 M294.664 276.400 C 294.054 277.432,294.040 277.600,294.565 277.600 C 294.969 277.600,295.089 277.376,294.919 276.934 C 294.760 276.520,294.823 276.367,295.087 276.530 C 295.319 276.673,295.603 276.433,295.717 275.996 C 296.025 274.818,295.473 275.030,294.664 276.400 M254.421 277.700 L 253.623 279.400 254.811 278.015 C 256.047 276.575,256.275 276.000,255.609 276.000 C 255.394 276.000,254.860 276.765,254.421 277.700 M290.832 282.100 C 290.814 282.485,290.536 282.800,290.214 282.800 C 289.892 282.800,289.442 283.148,289.214 283.574 C 288.685 284.563,288.690 284.903,289.230 284.723 C 289.466 284.645,289.639 284.440,289.612 284.268 C 289.586 284.097,289.958 283.638,290.439 283.249 C 290.922 282.858,291.213 282.285,291.088 281.970 C 290.920 281.544,290.855 281.577,290.832 282.100 M285.391 288.200 C 285.208 288.640,284.870 289.125,284.641 289.278 C 284.411 289.431,284.308 289.642,284.412 289.746 C 284.826 290.159,286.060 288.817,285.897 288.130 C 285.736 287.450,285.701 287.455,285.391 288.200 M281.097 293.026 C 280.635 293.639,280.543 294.041,280.826 294.216 C 281.061 294.362,281.350 294.112,281.468 293.662 C 281.586 293.211,281.979 292.783,282.341 292.710 C 282.902 292.596,282.911 292.541,282.398 292.338 C 282.036 292.195,281.517 292.470,281.097 293.026 M278.995 295.863 L 278.299 296.927 279.549 296.036 C 280.931 295.052,281.073 294.800,280.246 294.800 C 279.941 294.800,279.378 295.279,278.995 295.863 M276.964 296.950 C 276.819 297.327,276.816 297.750,276.957 297.891 C 277.098 298.031,277.426 297.934,277.687 297.673 C 278.047 297.313,278.049 297.089,277.693 296.733 C 277.337 296.377,277.164 296.429,276.964 296.950 M260.000 298.195 C 260.000 298.528,260.345 298.800,260.767 298.800 C 261.188 298.800,261.593 298.964,261.667 299.163 C 261.740 299.363,262.160 299.588,262.600 299.663 C 263.040 299.739,263.549 299.980,263.730 300.200 C 263.934 300.446,264.007 300.396,263.920 300.070 C 263.843 299.779,263.605 299.527,263.390 299.512 C 263.175 299.496,262.325 299.058,261.500 298.537 C 260.312 297.787,260.000 297.716,260.000 298.195 M272.800 299.461 C 272.249 299.752,272.069 299.988,272.400 299.988 C 273.090 299.988,274.270 299.320,273.988 299.089 C 273.885 299.004,273.350 299.171,272.800 299.461 M267.500 300.282 C 267.995 300.378,268.805 300.378,269.300 300.282 C 269.795 300.187,269.390 300.109,268.400 300.109 C 267.410 300.109,267.005 300.187,267.500 300.282 " stroke="none" fill="#000000" fill-rule="evenodd"></path></g></svg>